<svg xmlns="http://www.w3.org/2000/svg" xmlns:xlink="http://www.w3.org/1999/xlink" width="1366" zoomAndPan="magnify" viewBox="0 0 1024.5 576" height="768" preserveAspectRatio="xMidYMid meet" version="1.0"><defs><g/><clipPath id="43643d0269"><path d="M 0 0.140625 L 1024 0.140625 L 1024 575.859375 L 0 575.859375 Z M 0 0.140625 " clip-rule="nonzero"/></clipPath><clipPath id="48ba4194f7"><path d="M 133.589844 146.042969 L 902.015625 146.042969 L 902.015625 466.246094 L 133.589844 466.246094 Z M 133.589844 146.042969 " clip-rule="nonzero"/></clipPath><clipPath id="52e21057e5"><path d="M 0.589844 0.0429688 L 769 0.0429688 L 769 320.246094 L 0.589844 320.246094 Z M 0.589844 0.0429688 " clip-rule="nonzero"/></clipPath><clipPath id="98b8012808"><rect x="0" width="770" y="0" height="321"/></clipPath><clipPath id="c822ea0bc3"><path d="M 177 169.671875 L 206.742188 169.671875 L 206.742188 200 L 177 200 Z M 177 169.671875 " clip-rule="nonzero"/></clipPath><clipPath id="54779b2527"><path d="M 133.277344 169.671875 L 206.742188 169.671875 L 206.742188 297.859375 L 133.277344 297.859375 Z M 133.277344 169.671875 " clip-rule="nonzero"/></clipPath><clipPath id="32494ea211"><path d="M 177 338.324219 L 206.742188 338.324219 L 206.742188 368 L 177 368 Z M 177 338.324219 " clip-rule="nonzero"/></clipPath><clipPath id="3cb5253b9f"><path d="M 133.277344 338.324219 L 206.742188 338.324219 L 206.742188 466.511719 L 133.277344 466.511719 Z M 133.277344 338.324219 " clip-rule="nonzero"/></clipPath><clipPath id="36b7c0ab0f"><path d="M 715.285156 213.71875 L 966.429688 213.71875 L 966.429688 381.46875 L 715.285156 381.46875 Z M 715.285156 213.71875 " clip-rule="nonzero"/></clipPath><clipPath id="0fc3ed36d2"><path d="M 0.285156 0.71875 L 251.429688 0.71875 L 251.429688 168.46875 L 0.285156 168.46875 Z M 0.285156 0.71875 " clip-rule="nonzero"/></clipPath><clipPath id="7a3fe0e249"><rect x="0" width="252" y="0" height="169"/></clipPath><clipPath id="8ec6c4621c"><path d="M 795 287 L 818 287 L 818 302 L 795 302 Z M 795 287 " clip-rule="nonzero"/></clipPath><clipPath id="4200695c48"><path d="M 786.300781 298.992188 L 842.488281 242.804688 L 895.496094 295.808594 L 839.308594 351.996094 Z M 786.300781 298.992188 " clip-rule="nonzero"/></clipPath><clipPath id="6f56ebc105"><path d="M 786.300781 298.992188 L 842.488281 242.804688 L 895.496094 295.808594 L 839.308594 351.996094 Z M 786.300781 298.992188 " clip-rule="nonzero"/></clipPath><clipPath id="a835e6cf44"><path d="M 804 260 L 875 260 L 875 331 L 804 331 Z M 804 260 " clip-rule="nonzero"/></clipPath><clipPath id="8d4484faa5"><path d="M 786.300781 298.992188 L 842.488281 242.804688 L 895.496094 295.808594 L 839.308594 351.996094 Z M 786.300781 298.992188 " clip-rule="nonzero"/></clipPath><clipPath id="eab84f3b61"><path d="M 786.300781 298.992188 L 842.488281 242.804688 L 895.496094 295.808594 L 839.308594 351.996094 Z M 786.300781 298.992188 " clip-rule="nonzero"/></clipPath><clipPath id="789b600008"><path d="M 814 269 L 819 269 L 819 274 L 814 274 Z M 814 269 " clip-rule="nonzero"/></clipPath><clipPath id="4942a52e29"><path d="M 786.300781 298.992188 L 842.488281 242.804688 L 895.496094 295.808594 L 839.308594 351.996094 Z M 786.300781 298.992188 " clip-rule="nonzero"/></clipPath><clipPath id="1db20a16d7"><path d="M 786.300781 298.992188 L 842.488281 242.804688 L 895.496094 295.808594 L 839.308594 351.996094 Z M 786.300781 298.992188 " clip-rule="nonzero"/></clipPath></defs><g clip-path="url(#43643d0269)"><path fill="#171717" d="M 0 0.140625 L 1024 0.140625 L 1024 575.859375 L 0 575.859375 Z M 0 0.140625 " fill-opacity="1" fill-rule="nonzero"/><path fill="#171717" d="M 0 0.140625 L 1024 0.140625 L 1024 575.859375 L 0 575.859375 Z M 0 0.140625 " fill-opacity="1" fill-rule="nonzero"/></g><g clip-path="url(#48ba4194f7)"><g transform="matrix(1, 0, 0, 1, 133, 146)"><g clip-path="url(#98b8012808)"><g clip-path="url(#52e21057e5)"><path fill="#2e406f" d="M 0.589844 0.0429688 L 768.574219 0.0429688 L 768.574219 320.246094 L 0.589844 320.246094 Z M 0.589844 0.0429688 " fill-opacity="1" fill-rule="nonzero"/></g></g></g></g><g clip-path="url(#c822ea0bc3)"><path fill="#ffd9f9" d="M 206.148438 199.226562 C 206.070312 199.226562 205.992188 199.214844 205.917969 199.191406 L 185.1875 191.835938 C 184.976562 191.761719 184.832031 191.621094 184.757812 191.40625 L 177.40625 170.683594 C 177.304688 170.398438 177.367188 170.152344 177.582031 169.941406 C 177.800781 169.730469 178.050781 169.683594 178.332031 169.796875 L 198.269531 177.933594 C 198.453125 178.007812 198.582031 178.136719 198.65625 178.320312 L 206.800781 198.261719 C 206.84375 198.371094 206.859375 198.484375 206.847656 198.601562 C 206.832031 198.714844 206.792969 198.820312 206.730469 198.917969 C 206.664062 199.015625 206.582031 199.089844 206.476562 199.144531 C 206.375 199.199219 206.265625 199.226562 206.148438 199.226562 Z M 185.972656 190.621094 L 204.902344 197.335938 L 197.464844 179.125 L 179.257812 171.695312 Z M 185.972656 190.621094 " fill-opacity="1" fill-rule="nonzero"/></g><g clip-path="url(#54779b2527)"><path fill="#ffd9f9" d="M 206.851562 198.371094 C 206.792969 198.117188 206.644531 197.949219 206.398438 197.863281 L 185.976562 190.621094 L 178.738281 170.199219 C 178.695312 170.082031 178.632812 169.988281 178.539062 169.90625 C 178.449219 169.828125 178.347656 169.773438 178.226562 169.746094 C 178.109375 169.722656 177.992188 169.722656 177.878906 169.757812 C 177.761719 169.792969 177.660156 169.851562 177.574219 169.9375 L 79.304688 268.21875 L 79.257812 268.265625 C 79.039062 268.476562 78.980469 268.722656 79.082031 269.011719 L 86.433594 289.730469 C 86.449219 289.765625 86.464844 289.800781 86.484375 289.832031 L 86.5 289.867188 C 86.527344 289.90625 86.558594 289.945312 86.59375 289.980469 C 86.628906 290.011719 86.664062 290.042969 86.707031 290.070312 L 86.738281 290.085938 C 86.769531 290.105469 86.804688 290.121094 86.839844 290.132812 L 107.5625 297.484375 C 107.640625 297.511719 107.71875 297.527344 107.800781 297.527344 C 108 297.527344 108.171875 297.457031 108.308594 297.308594 L 108.308594 297.289062 L 108.34375 297.261719 L 206.644531 199.023438 C 206.835938 198.84375 206.90625 198.625 206.851562 198.371094 Z M 80.648438 268.867188 L 177.78125 171.734375 L 184.609375 190.988281 L 87.390625 288.210938 L 80.605469 269.09375 C 80.632812 269.019531 80.644531 268.945312 80.648438 268.867188 Z M 107.730469 295.945312 C 107.652344 295.945312 107.574219 295.960938 107.5 295.988281 L 88.382812 289.207031 L 185.605469 191.984375 L 204.859375 198.816406 Z M 107.730469 295.945312 " fill-opacity="1" fill-rule="nonzero"/></g><g clip-path="url(#32494ea211)"><path fill="#ffd9f9" d="M 206.148438 367.878906 C 206.070312 367.878906 205.992188 367.863281 205.917969 367.839844 L 185.1875 360.488281 C 184.976562 360.414062 184.832031 360.269531 184.757812 360.058594 L 177.40625 339.332031 C 177.304688 339.046875 177.367188 338.800781 177.582031 338.589844 C 177.800781 338.382812 178.050781 338.332031 178.332031 338.445312 L 198.269531 346.582031 C 198.453125 346.65625 198.582031 346.785156 198.65625 346.96875 L 206.800781 366.914062 C 206.84375 367.019531 206.859375 367.132812 206.847656 367.25 C 206.832031 367.363281 206.792969 367.472656 206.730469 367.566406 C 206.664062 367.664062 206.582031 367.738281 206.476562 367.792969 C 206.375 367.851562 206.265625 367.878906 206.148438 367.878906 Z M 185.972656 359.269531 L 204.902344 365.984375 L 197.464844 347.777344 L 179.257812 340.34375 Z M 185.972656 359.269531 " fill-opacity="1" fill-rule="nonzero"/></g><g clip-path="url(#3cb5253b9f)"><path fill="#ffd9f9" d="M 206.851562 367.019531 C 206.792969 366.765625 206.644531 366.597656 206.398438 366.511719 L 185.976562 359.269531 L 178.738281 338.847656 C 178.695312 338.734375 178.632812 338.636719 178.539062 338.554688 C 178.449219 338.476562 178.347656 338.421875 178.226562 338.398438 C 178.109375 338.371094 177.992188 338.375 177.878906 338.40625 C 177.761719 338.441406 177.660156 338.5 177.574219 338.585938 L 79.304688 436.867188 L 79.277344 436.898438 L 79.257812 436.914062 C 79.039062 437.125 78.980469 437.375 79.082031 437.660156 L 86.433594 458.382812 C 86.449219 458.414062 86.464844 458.449219 86.484375 458.480469 L 86.5 458.515625 C 86.527344 458.554688 86.558594 458.59375 86.59375 458.628906 C 86.628906 458.660156 86.664062 458.691406 86.707031 458.71875 L 86.738281 458.738281 C 86.769531 458.753906 86.804688 458.769531 86.839844 458.78125 L 107.5625 466.136719 C 107.640625 466.164062 107.71875 466.175781 107.800781 466.175781 C 108 466.175781 108.171875 466.105469 108.308594 465.957031 L 108.308594 465.9375 L 108.34375 465.910156 L 206.644531 367.671875 C 206.835938 367.492188 206.90625 367.277344 206.851562 367.019531 Z M 80.648438 437.515625 L 177.78125 340.386719 L 184.609375 359.636719 L 87.390625 456.859375 L 80.605469 437.746094 C 80.632812 437.671875 80.644531 437.59375 80.648438 437.515625 Z M 107.730469 464.597656 C 107.652344 464.597656 107.574219 464.609375 107.5 464.636719 L 88.382812 457.855469 L 185.605469 360.636719 L 204.859375 367.464844 Z M 107.730469 464.597656 " fill-opacity="1" fill-rule="nonzero"/></g><g clip-path="url(#36b7c0ab0f)"><g transform="matrix(1, 0, 0, 1, 715, 213)"><g clip-path="url(#7a3fe0e249)"><g clip-path="url(#0fc3ed36d2)"><path fill="#000000" d="M 0.285156 0.71875 L 251.253906 0.71875 L 251.253906 168.46875 L 0.285156 168.46875 Z M 0.285156 0.71875 " fill-opacity="1" fill-rule="nonzero"/></g></g></g></g><g clip-path="url(#8ec6c4621c)"><g clip-path="url(#4200695c48)"><g clip-path="url(#6f56ebc105)"><path fill="#ffd9f9" d="M 817.441406 297.703125 L 805.941406 287.570312 C 805.503906 287.1875 804.832031 287.269531 804.503906 287.746094 L 795.8125 300.375 C 795.339844 301.058594 795.898438 301.984375 796.726562 301.882812 L 816.921875 299.390625 C 817.75 299.285156 818.066406 298.253906 817.441406 297.703125 Z M 817.441406 297.703125 " fill-opacity="1" fill-rule="nonzero"/></g></g></g><g clip-path="url(#a835e6cf44)"><g clip-path="url(#8d4484faa5)"><g clip-path="url(#eab84f3b61)"><path fill="#ffd9f9" d="M 837.414062 260.453125 C 828.851562 260.960938 821.296875 264.445312 815.570312 269.765625 L 818.40625 272.675781 C 822.902344 268.523438 828.65625 265.640625 835.183594 264.738281 C 852.808594 262.308594 869.015625 275.195312 870.371094 293.214844 C 871.53125 308.65625 860.785156 322.835938 845.609375 325.894531 C 827.894531 329.464844 811.105469 317.347656 808.675781 299.71875 L 804.664062 300.269531 C 807.308594 319.464844 825.011719 332.882812 844.210938 330.238281 C 864.128906 327.492188 877.828125 308.527344 873.804688 288.511719 C 870.394531 271.539062 854.695312 259.429688 837.414062 260.453125 Z M 837.414062 260.453125 " fill-opacity="1" fill-rule="nonzero"/></g></g></g><g clip-path="url(#789b600008)"><g clip-path="url(#4942a52e29)"><g clip-path="url(#1db20a16d7)"><path fill="#ffd9f9" d="M 815.53125 272.632812 C 816.3125 273.441406 817.597656 273.460938 818.398438 272.683594 L 815.570312 269.765625 C 814.769531 270.542969 814.75 271.828125 815.53125 272.632812 Z M 815.53125 272.632812 " fill-opacity="1" fill-rule="nonzero"/></g></g></g><path stroke-linecap="butt" transform="matrix(0.749634, 0, 0, 0.749634, 50.825198, 330.76728)" fill="none" stroke-linejoin="miter" d="M -0.00130604 0.498037 L 23.166246 0.498037 " stroke="#ffffff" stroke-width="1" stroke-opacity="1" stroke-miterlimit="4"/><g fill="#ffffff" fill-opacity="1"><g transform="translate(50.825198, 349.008394)"><g><path d="M 8.375 0.265625 C 7 0.265625 5.78125 -0.0390625 4.71875 -0.65625 C 3.65625 -1.28125 2.816406 -2.140625 2.203125 -3.234375 C 1.585938 -4.328125 1.28125 -5.582031 1.28125 -7 C 1.28125 -8.425781 1.585938 -9.679688 2.203125 -10.765625 C 2.816406 -11.847656 3.65625 -12.695312 4.71875 -13.3125 C 5.78125 -13.9375 7 -14.25 8.375 -14.25 C 9.4375 -14.25 10.421875 -14.050781 11.328125 -13.65625 C 12.234375 -13.257812 13.015625 -12.707031 13.671875 -12 C 14.328125 -11.289062 14.804688 -10.441406 15.109375 -9.453125 L 13.828125 -9.453125 C 13.429688 -10.554688 12.742188 -11.425781 11.765625 -12.0625 C 10.796875 -12.707031 9.671875 -13.03125 8.390625 -13.03125 C 7.253906 -13.03125 6.242188 -12.773438 5.359375 -12.265625 C 4.472656 -11.765625 3.773438 -11.0625 3.265625 -10.15625 C 2.765625 -9.25 2.515625 -8.195312 2.515625 -7 C 2.515625 -5.8125 2.765625 -4.757812 3.265625 -3.84375 C 3.773438 -2.9375 4.472656 -2.226562 5.359375 -1.71875 C 6.242188 -1.207031 7.253906 -0.953125 8.390625 -0.953125 C 9.703125 -0.953125 10.859375 -1.285156 11.859375 -1.953125 C 12.867188 -2.617188 13.566406 -3.535156 13.953125 -4.703125 L 15.234375 -4.703125 C 14.953125 -3.703125 14.476562 -2.828125 13.8125 -2.078125 C 13.144531 -1.328125 12.347656 -0.75 11.421875 -0.34375 C 10.492188 0.0625 9.476562 0.265625 8.375 0.265625 Z M 8.375 0.265625 "/></g></g></g><g fill="#ffffff" fill-opacity="1"><g transform="translate(67.250702, 349.008394)"><g><path d="M 2.0625 0 L 2.0625 -14.78125 L 3.21875 -14.78125 L 3.21875 -8.453125 C 3.632812 -9.160156 4.179688 -9.691406 4.859375 -10.046875 C 5.535156 -10.410156 6.28125 -10.59375 7.09375 -10.59375 C 8.4375 -10.59375 9.488281 -10.160156 10.25 -9.296875 C 11.019531 -8.429688 11.40625 -7.25 11.40625 -5.75 L 11.40625 0 L 10.25 0 L 10.25 -5.65625 C 10.25 -6.84375 9.953125 -7.773438 9.359375 -8.453125 C 8.765625 -9.128906 7.957031 -9.46875 6.9375 -9.46875 C 6.21875 -9.46875 5.578125 -9.296875 5.015625 -8.953125 C 4.453125 -8.617188 4.007812 -8.144531 3.6875 -7.53125 C 3.375 -6.914062 3.21875 -6.195312 3.21875 -5.375 L 3.21875 0 Z M 2.0625 0 "/></g></g></g><g fill="#ffffff" fill-opacity="1"><g transform="translate(80.499012, 349.008394)"><g><path d="M 6.4375 0.265625 C 5.394531 0.265625 4.476562 0.0351562 3.6875 -0.421875 C 2.894531 -0.890625 2.273438 -1.53125 1.828125 -2.34375 C 1.378906 -3.164062 1.15625 -4.109375 1.15625 -5.171875 C 1.15625 -6.242188 1.378906 -7.1875 1.828125 -8 C 2.273438 -8.8125 2.894531 -9.445312 3.6875 -9.90625 C 4.488281 -10.363281 5.410156 -10.59375 6.453125 -10.59375 C 7.546875 -10.59375 8.488281 -10.34375 9.28125 -9.84375 C 10.082031 -9.34375 10.695312 -8.648438 11.125 -7.765625 C 11.550781 -6.890625 11.753906 -5.867188 11.734375 -4.703125 L 2.34375 -4.703125 C 2.445312 -3.523438 2.867188 -2.585938 3.609375 -1.890625 C 4.347656 -1.191406 5.289062 -0.84375 6.4375 -0.84375 C 7.269531 -0.84375 8.007812 -1.023438 8.65625 -1.390625 C 9.300781 -1.765625 9.789062 -2.285156 10.125 -2.953125 L 11.4375 -2.9375 C 11.03125 -1.945312 10.382812 -1.164062 9.5 -0.59375 C 8.613281 -0.0195312 7.59375 0.265625 6.4375 0.265625 Z M 2.34375 -5.71875 L 10.59375 -5.71875 C 10.457031 -6.882812 10.015625 -7.804688 9.265625 -8.484375 C 8.523438 -9.160156 7.585938 -9.5 6.453125 -9.5 C 5.304688 -9.5 4.359375 -9.15625 3.609375 -8.46875 C 2.867188 -7.78125 2.445312 -6.863281 2.34375 -5.71875 Z M 2.34375 -5.71875 "/></g></g></g><g fill="#ffffff" fill-opacity="1"><g transform="translate(93.347672, 349.008394)"><g><path d="M 2.0625 0 L 2.0625 -10.328125 L 3.03125 -10.328125 L 3.140625 -8.328125 C 3.546875 -9.078125 4.09375 -9.640625 4.78125 -10.015625 C 5.46875 -10.398438 6.222656 -10.59375 7.046875 -10.59375 C 8.398438 -10.59375 9.460938 -10.148438 10.234375 -9.265625 C 11.015625 -8.390625 11.40625 -7.207031 11.40625 -5.71875 L 11.40625 0 L 10.25 0 L 10.25 -5.609375 C 10.25 -6.796875 9.945312 -7.734375 9.34375 -8.421875 C 8.75 -9.117188 7.941406 -9.46875 6.921875 -9.46875 C 6.191406 -9.46875 5.546875 -9.296875 4.984375 -8.953125 C 4.429688 -8.609375 4 -8.128906 3.6875 -7.515625 C 3.375 -6.898438 3.21875 -6.179688 3.21875 -5.359375 L 3.21875 0 Z M 2.0625 0 "/></g></g></g><g fill="#ffffff" fill-opacity="1"><g transform="translate(106.595982, 349.008394)"><g><path d="M 6.59375 4.25 C 5.332031 4.25 4.265625 3.9375 3.390625 3.3125 C 2.515625 2.695312 1.976562 1.863281 1.78125 0.8125 L 2.953125 0.8125 C 3.128906 1.539062 3.539062 2.113281 4.1875 2.53125 C 4.84375 2.945312 5.644531 3.15625 6.59375 3.15625 C 7.78125 3.15625 8.722656 2.828125 9.421875 2.171875 C 10.128906 1.523438 10.484375 0.648438 10.484375 -0.453125 L 10.484375 -2.140625 C 10.035156 -1.515625 9.453125 -1.019531 8.734375 -0.65625 C 8.015625 -0.300781 7.210938 -0.125 6.328125 -0.125 C 5.335938 -0.125 4.453125 -0.347656 3.671875 -0.796875 C 2.890625 -1.253906 2.273438 -1.875 1.828125 -2.65625 C 1.378906 -3.445312 1.15625 -4.347656 1.15625 -5.359375 C 1.15625 -6.367188 1.378906 -7.265625 1.828125 -8.046875 C 2.273438 -8.835938 2.890625 -9.457031 3.671875 -9.90625 C 4.453125 -10.363281 5.335938 -10.59375 6.328125 -10.59375 C 7.234375 -10.59375 8.050781 -10.40625 8.78125 -10.03125 C 9.519531 -9.65625 10.117188 -9.132812 10.578125 -8.46875 L 10.671875 -10.328125 L 11.65625 -10.328125 L 11.65625 -0.421875 C 11.65625 0.492188 11.441406 1.304688 11.015625 2.015625 C 10.585938 2.722656 9.992188 3.269531 9.234375 3.65625 C 8.484375 4.050781 7.601562 4.25 6.59375 4.25 Z M 2.3125 -5.359375 C 2.3125 -4.554688 2.488281 -3.84375 2.84375 -3.21875 C 3.195312 -2.601562 3.679688 -2.125 4.296875 -1.78125 C 4.921875 -1.4375 5.640625 -1.265625 6.453125 -1.265625 C 7.265625 -1.265625 7.976562 -1.4375 8.59375 -1.78125 C 9.207031 -2.125 9.691406 -2.601562 10.046875 -3.21875 C 10.398438 -3.84375 10.578125 -4.554688 10.578125 -5.359375 C 10.578125 -6.171875 10.398438 -6.878906 10.046875 -7.484375 C 9.691406 -8.097656 9.207031 -8.582031 8.59375 -8.9375 C 7.976562 -9.289062 7.265625 -9.46875 6.453125 -9.46875 C 5.640625 -9.46875 4.921875 -9.289062 4.296875 -8.9375 C 3.679688 -8.582031 3.195312 -8.097656 2.84375 -7.484375 C 2.488281 -6.878906 2.3125 -6.171875 2.3125 -5.359375 Z M 2.3125 -5.359375 "/></g></g></g><g fill="#ffffff" fill-opacity="1"><g transform="translate(50.825198, 404.481318)"><g><path d="M 2.265625 0 L 2.265625 -13.984375 L 3.484375 -13.984375 L 3.484375 -7.6875 L 5.703125 -7.6875 C 6.785156 -7.6875 7.597656 -7.878906 8.140625 -8.265625 C 8.679688 -8.660156 9.113281 -9.269531 9.4375 -10.09375 L 10.90625 -13.984375 L 12.1875 -13.984375 L 10.515625 -9.609375 C 10.296875 -9.035156 10.03125 -8.546875 9.71875 -8.140625 C 9.414062 -7.742188 9.039062 -7.421875 8.59375 -7.171875 L 12.765625 0 L 11.375 0 L 7.46875 -6.734375 C 6.976562 -6.597656 6.390625 -6.53125 5.703125 -6.53125 L 3.484375 -6.53125 L 3.484375 0 Z M 2.265625 0 "/></g></g></g><g fill="#ffffff" fill-opacity="1"><g transform="translate(64.453163, 404.481318)"><g><path d="M 6.140625 0.265625 C 4.804688 0.265625 3.753906 -0.171875 2.984375 -1.046875 C 2.222656 -1.929688 1.84375 -3.117188 1.84375 -4.609375 L 1.84375 -10.328125 L 3 -10.328125 L 3 -4.71875 C 3 -3.539062 3.296875 -2.601562 3.890625 -1.90625 C 4.484375 -1.207031 5.285156 -0.859375 6.296875 -0.859375 C 7.015625 -0.859375 7.644531 -1.03125 8.1875 -1.375 C 8.726562 -1.726562 9.148438 -2.21875 9.453125 -2.84375 C 9.753906 -3.46875 9.90625 -4.1875 9.90625 -5 L 9.90625 -10.328125 L 11.078125 -10.328125 L 11.078125 0 L 10.109375 0 L 10 -2.015625 C 9.59375 -1.273438 9.050781 -0.707031 8.375 -0.3125 C 7.695312 0.0703125 6.953125 0.265625 6.140625 0.265625 Z M 6.140625 0.265625 "/></g></g></g><g fill="#ffffff" fill-opacity="1"><g transform="translate(77.581574, 404.481318)"><g><path d="M 6.4375 0.265625 C 5.394531 0.265625 4.476562 0.0351562 3.6875 -0.421875 C 2.894531 -0.890625 2.273438 -1.53125 1.828125 -2.34375 C 1.378906 -3.164062 1.15625 -4.109375 1.15625 -5.171875 C 1.15625 -6.242188 1.378906 -7.1875 1.828125 -8 C 2.273438 -8.8125 2.894531 -9.445312 3.6875 -9.90625 C 4.488281 -10.363281 5.410156 -10.59375 6.453125 -10.59375 C 7.546875 -10.59375 8.488281 -10.34375 9.28125 -9.84375 C 10.082031 -9.34375 10.695312 -8.648438 11.125 -7.765625 C 11.550781 -6.890625 11.753906 -5.867188 11.734375 -4.703125 L 2.34375 -4.703125 C 2.445312 -3.523438 2.867188 -2.585938 3.609375 -1.890625 C 4.347656 -1.191406 5.289062 -0.84375 6.4375 -0.84375 C 7.269531 -0.84375 8.007812 -1.023438 8.65625 -1.390625 C 9.300781 -1.765625 9.789062 -2.285156 10.125 -2.953125 L 11.4375 -2.9375 C 11.03125 -1.945312 10.382812 -1.164062 9.5 -0.59375 C 8.613281 -0.0195312 7.59375 0.265625 6.4375 0.265625 Z M 2.34375 -5.71875 L 10.59375 -5.71875 C 10.457031 -6.882812 10.015625 -7.804688 9.265625 -8.484375 C 8.523438 -9.160156 7.585938 -9.5 6.453125 -9.5 C 5.304688 -9.5 4.359375 -9.15625 3.609375 -8.46875 C 2.867188 -7.78125 2.445312 -6.863281 2.34375 -5.71875 Z M 2.34375 -5.71875 "/></g></g></g><g fill="#ffffff" fill-opacity="1"><g transform="translate(90.430234, 404.481318)"><g><path d="M 2.0625 0 L 2.0625 -10.328125 L 3.21875 -10.328125 L 3.21875 0 Z M 1.578125 -13.265625 C 1.578125 -13.554688 1.671875 -13.800781 1.859375 -14 C 2.054688 -14.207031 2.316406 -14.3125 2.640625 -14.3125 C 2.960938 -14.3125 3.21875 -14.207031 3.40625 -14 C 3.601562 -13.800781 3.703125 -13.554688 3.703125 -13.265625 C 3.703125 -12.972656 3.601562 -12.722656 3.40625 -12.515625 C 3.21875 -12.304688 2.960938 -12.203125 2.640625 -12.203125 C 2.316406 -12.203125 2.054688 -12.304688 1.859375 -12.515625 C 1.671875 -12.722656 1.578125 -12.972656 1.578125 -13.265625 Z M 1.578125 -13.265625 "/></g></g></g><g fill="#ffffff" fill-opacity="1"><g transform="translate(50.825198, 432.217781)"><g><path d="M 8.375 0.265625 C 7 0.265625 5.78125 -0.0390625 4.71875 -0.65625 C 3.65625 -1.28125 2.816406 -2.140625 2.203125 -3.234375 C 1.585938 -4.328125 1.28125 -5.582031 1.28125 -7 C 1.28125 -8.425781 1.585938 -9.679688 2.203125 -10.765625 C 2.816406 -11.847656 3.65625 -12.695312 4.71875 -13.3125 C 5.78125 -13.9375 7 -14.25 8.375 -14.25 C 9.4375 -14.25 10.421875 -14.050781 11.328125 -13.65625 C 12.234375 -13.257812 13.015625 -12.707031 13.671875 -12 C 14.328125 -11.289062 14.804688 -10.441406 15.109375 -9.453125 L 13.828125 -9.453125 C 13.429688 -10.554688 12.742188 -11.425781 11.765625 -12.0625 C 10.796875 -12.707031 9.671875 -13.03125 8.390625 -13.03125 C 7.253906 -13.03125 6.242188 -12.773438 5.359375 -12.265625 C 4.472656 -11.765625 3.773438 -11.0625 3.265625 -10.15625 C 2.765625 -9.25 2.515625 -8.195312 2.515625 -7 C 2.515625 -5.8125 2.765625 -4.757812 3.265625 -3.84375 C 3.773438 -2.9375 4.472656 -2.226562 5.359375 -1.71875 C 6.242188 -1.207031 7.253906 -0.953125 8.390625 -0.953125 C 9.703125 -0.953125 10.859375 -1.285156 11.859375 -1.953125 C 12.867188 -2.617188 13.566406 -3.535156 13.953125 -4.703125 L 15.234375 -4.703125 C 14.953125 -3.703125 14.476562 -2.828125 13.8125 -2.078125 C 13.144531 -1.328125 12.347656 -0.75 11.421875 -0.34375 C 10.492188 0.0625 9.476562 0.265625 8.375 0.265625 Z M 8.375 0.265625 "/></g></g></g><g fill="#ffffff" fill-opacity="1"><g transform="translate(67.250702, 432.217781)"><g><path d="M 2.0625 0 L 2.0625 -14.78125 L 3.21875 -14.78125 L 3.21875 -8.453125 C 3.632812 -9.160156 4.179688 -9.691406 4.859375 -10.046875 C 5.535156 -10.410156 6.28125 -10.59375 7.09375 -10.59375 C 8.4375 -10.59375 9.488281 -10.160156 10.25 -9.296875 C 11.019531 -8.429688 11.40625 -7.25 11.40625 -5.75 L 11.40625 0 L 10.25 0 L 10.25 -5.65625 C 10.25 -6.84375 9.953125 -7.773438 9.359375 -8.453125 C 8.765625 -9.128906 7.957031 -9.46875 6.9375 -9.46875 C 6.21875 -9.46875 5.578125 -9.296875 5.015625 -8.953125 C 4.453125 -8.617188 4.007812 -8.144531 3.6875 -7.53125 C 3.375 -6.914062 3.21875 -6.195312 3.21875 -5.375 L 3.21875 0 Z M 2.0625 0 "/></g></g></g><g fill="#ffffff" fill-opacity="1"><g transform="translate(80.499012, 432.217781)"><g><path d="M 2.0625 0 L 2.0625 -10.328125 L 3.21875 -10.328125 L 3.21875 0 Z M 1.578125 -13.265625 C 1.578125 -13.554688 1.671875 -13.800781 1.859375 -14 C 2.054688 -14.207031 2.316406 -14.3125 2.640625 -14.3125 C 2.960938 -14.3125 3.21875 -14.207031 3.40625 -14 C 3.601562 -13.800781 3.703125 -13.554688 3.703125 -13.265625 C 3.703125 -12.972656 3.601562 -12.722656 3.40625 -12.515625 C 3.21875 -12.304688 2.960938 -12.203125 2.640625 -12.203125 C 2.316406 -12.203125 2.054688 -12.304688 1.859375 -12.515625 C 1.671875 -12.722656 1.578125 -12.972656 1.578125 -13.265625 Z M 1.578125 -13.265625 "/></g></g></g><g fill="#ffffff" fill-opacity="1"><g transform="translate(85.774361, 432.217781)"><g><path d="M 6.4375 0.265625 C 5.394531 0.265625 4.476562 0.0351562 3.6875 -0.421875 C 2.894531 -0.890625 2.273438 -1.53125 1.828125 -2.34375 C 1.378906 -3.164062 1.15625 -4.109375 1.15625 -5.171875 C 1.15625 -6.242188 1.378906 -7.1875 1.828125 -8 C 2.273438 -8.8125 2.894531 -9.445312 3.6875 -9.90625 C 4.488281 -10.363281 5.410156 -10.59375 6.453125 -10.59375 C 7.546875 -10.59375 8.488281 -10.34375 9.28125 -9.84375 C 10.082031 -9.34375 10.695312 -8.648438 11.125 -7.765625 C 11.550781 -6.890625 11.753906 -5.867188 11.734375 -4.703125 L 2.34375 -4.703125 C 2.445312 -3.523438 2.867188 -2.585938 3.609375 -1.890625 C 4.347656 -1.191406 5.289062 -0.84375 6.4375 -0.84375 C 7.269531 -0.84375 8.007812 -1.023438 8.65625 -1.390625 C 9.300781 -1.765625 9.789062 -2.285156 10.125 -2.953125 L 11.4375 -2.9375 C 11.03125 -1.945312 10.382812 -1.164062 9.5 -0.59375 C 8.613281 -0.0195312 7.59375 0.265625 6.4375 0.265625 Z M 2.34375 -5.71875 L 10.59375 -5.71875 C 10.457031 -6.882812 10.015625 -7.804688 9.265625 -8.484375 C 8.523438 -9.160156 7.585938 -9.5 6.453125 -9.5 C 5.304688 -9.5 4.359375 -9.15625 3.609375 -8.46875 C 2.867188 -7.78125 2.445312 -6.863281 2.34375 -5.71875 Z M 2.34375 -5.71875 "/></g></g></g><g fill="#ffffff" fill-opacity="1"><g transform="translate(98.623021, 432.217781)"><g><path d="M 2.0625 0 L 2.0625 -10.328125 L 3.03125 -10.328125 L 3.140625 -8.328125 C 3.546875 -9.078125 4.09375 -9.640625 4.78125 -10.015625 C 5.46875 -10.398438 6.222656 -10.59375 7.046875 -10.59375 C 8.398438 -10.59375 9.460938 -10.148438 10.234375 -9.265625 C 11.015625 -8.390625 11.40625 -7.207031 11.40625 -5.71875 L 11.40625 0 L 10.25 0 L 10.25 -5.609375 C 10.25 -6.796875 9.945312 -7.734375 9.34375 -8.421875 C 8.75 -9.117188 7.941406 -9.46875 6.921875 -9.46875 C 6.191406 -9.46875 5.546875 -9.296875 4.984375 -8.953125 C 4.429688 -8.609375 4 -8.128906 3.6875 -7.515625 C 3.375 -6.898438 3.21875 -6.179688 3.21875 -5.359375 L 3.21875 0 Z M 2.0625 0 "/></g></g></g><path stroke-linecap="butt" transform="matrix(0.749634, 0, 0, 0.749634, 50.825198, 436.702493)" fill="none" stroke-linejoin="miter" d="M -0.00130604 0.501088 L 23.166246 0.501088 " stroke="#ffffff" stroke-width="1" stroke-opacity="1" stroke-miterlimit="4"/></svg>