<?xml version="1.0" encoding="utf-8"?>
<!-- Generator: Adobe Illustrator 27.0.0, SVG Export Plug-In . SVG Version: 6.00 Build 0)  -->
<svg version="1.1" id="圖層_1" xmlns="http://www.w3.org/2000/svg" xmlns:xlink="http://www.w3.org/1999/xlink" x="0px" y="0px"
	 viewBox="0 0 595.28 841.89" style="enable-background:new 0 0 595.28 841.89;" xml:space="preserve">
<style type="text/css">
	.st0{fill:#D9C4A8;}
	.st1{fill:#D8C4A8;}
</style>
<rect x="0" y="0" width="595.28" height="841.89" fill="#FFFFFF" />
<g>
	<path class="st0" d="M237.01,521.22c4.16,0,8.31,0,12.47,0c1.52,0,1.88-0.38,1.88-1.93c0-2.67,0-5.35,0-8.02
		c0-1.71-0.44-2.22-2.19-2.23c-1.51-0.01-3.03,0.15-4.54,0.16c-5.03,0.02-10.07,0.02-15.1,0c-0.63,0-1.27-0.12-1.9-0.21
		c-0.53-0.07-0.88-0.37-0.96-0.91c-0.09-0.6,0.04-1.1,0.62-1.43c0.51-0.29,1.07-0.28,1.63-0.28c6.79,0,13.59,0.01,20.38,0.01
		c1.8,0,2.07-0.28,2.06-2.08c-0.01-2-0.05-3.99,0.02-5.99c0.03-0.97-0.36-1.31-1.25-1.27c-1.87,0.09-3.74,0.15-5.61,0.26
		c-5.06,0.3-10.12,0.48-15.19,0.46c-0.36,0-0.73,0-1.07-0.11c-0.64-0.2-1.2-0.53-1.11-1.34c0.1-0.84,0.75-1.1,1.45-1.18
		c1.15-0.13,2.3-0.19,3.46-0.25c6.28-0.33,12.56-0.72,18.82-1.41c4.75-0.52,9.49-1.04,14.14-2.2c2.12-0.53,4.04-1.74,6.24-2.02
		c2.37-0.3,4.69-0.14,6.92,0.78c0.7,0.29,1.28,0.71,1.26,1.56c-0.02,0.91-0.56,1.47-1.37,1.78c-1.8,0.68-3.69,0.96-5.58,1.25
		c-3.97,0.61-7.95,1.14-11.96,1.46c-0.98,0.08-1.5,0.51-1.48,1.6c0.05,2.31,0.02,4.63,0.02,6.95c0,1.57,0.15,1.74,1.7,1.74
		c6.75,0,13.51,0,20.26,0c0.48,0,0.95-0.03,1.42,0.16c0.63,0.25,1.03,0.62,0.93,1.33c-0.1,0.73-0.52,1.13-1.29,1.16
		c-1.63,0.06-3.27,0.17-4.9,0.18c-3.84,0.03-7.67,0.03-11.51,0c-1.55-0.01-3.11-0.16-4.66-0.16c-1.61,0-1.95,0.41-1.95,1.99
		c0,2.75,0,5.51,0,8.26c0,1.52,0.38,1.92,1.9,1.92c7.83,0,15.66-0.01,23.5,0c0.52,0,1.05-0.03,1.55,0.09
		c0.66,0.16,1.2,0.54,1.1,1.34c-0.08,0.73-0.57,1.12-1.28,1.2c-0.43,0.05-0.88,0.03-1.32,0.03c-7.67,0-15.34-0.01-23.02-0.01
		c-2.16,0-2.44,0.28-2.44,2.38c0.01,3.47,0.01,6.95,0,10.42c-0.01,4.14-1.82,6.18-5.96,6.32c-4.23,0.14-8.47,0.05-12.71,0.04
		c-0.9,0-1.56-0.3-1.52-1.39c0.04-1.02,0.63-1.27,1.51-1.26c2.12,0.01,4.24,0.02,6.35-0.01c0.87-0.01,1.75-0.09,2.61-0.24
		c1.32-0.22,1.96-1.01,1.99-2.72c0.06-4.03,0.04-8.06,0.03-12.1c0-1.19-0.85-1.42-1.81-1.43c-2.2-0.01-4.4,0-6.59,0
		c-6.07,0-12.15,0-18.22,0c-1.57,0-2.3-0.41-2.33-1.3c-0.03-0.92,0.73-1.37,2.38-1.37C228.86,521.21,232.93,521.21,237.01,521.22
		C237.01,521.22,237.01,521.22,237.01,521.22z"/>
	<path class="st0" d="M342.27,537.99c-10.51,0-21.02,0-31.53,0c-1.83,0-2.53-0.37-2.55-1.3c-0.01-0.88,1.18-1.74,2.62-1.81
		c1.91-0.1,3.83-0.19,5.74-0.19c6.87-0.02,13.75-0.03,20.62,0.01c1.01,0.01,1.27-0.29,1.26-1.28c-0.03-11.66-0.03-23.32,0-34.98
		c0-1.03-0.17-1.34-1.33-1.25c-2.62,0.22-5.26,0.04-7.89,0.27c-3.21,0.28-6.43,0.68-9.67,0.54c-2.15-0.09-4.16-0.63-6.04-1.69
		c-0.68-0.38-0.78-0.66-0.04-1.13c1.38-0.87,2.88-1.19,4.46-0.97c0.84,0.12,1.66,0.16,2.5,0.16c14.75,0,29.5-0.01,44.24,0.02
		c1.5,0,2.99-0.56,4.51-0.05c0.94,0.31,2.27,0.48,2.38,1.45c0.07,0.69-1.29,0.96-2.08,1.31c-2.78,1.21-5.73,1.01-8.62,0.8
		c-3.9-0.28-7.78-0.72-11.69-0.68c-0.36,0-0.72,0.02-1.08-0.02c-1.78-0.2-1.78-0.21-1.78,1.51c0,11.5,0.02,23-0.03,34.5
		c0,1.14,0.27,1.48,1.44,1.47c6.63-0.06,13.27-0.04,19.9-0.01c2.07,0.01,4.15,0.11,6.22,0.19c0.82,0.03,1.57,0.31,2.19,0.85
		c0.83,0.72,0.65,1.64-0.36,2.06c-0.57,0.23-1.17,0.22-1.77,0.22C363.37,537.99,352.82,537.99,342.27,537.99z"/>
	<path class="st0" d="M448.24,536.28c2.94,1.7,5.96,2.58,9,3.38c1.35,0.35,2.71,0.65,4.06,1c0.86,0.22,1.79,0.44,1.7,1.62
		c-0.07,0.97-0.85,1.41-2.21,1.21c-5.1-0.75-10.11-1.88-14.89-3.82c-1.81-0.73-3.46-0.8-5.3-0.06c-4.33,1.75-8.78,3.12-13.46,3.61
		c-0.91,0.1-1.83,0.07-2.75,0.08c-0.73,0.01-1.07-0.49-1.23-1.11c-0.17-0.66,0.24-1.06,0.8-1.3c1.4-0.59,2.91-0.82,4.37-1.2
		c3.09-0.8,6.12-1.77,9.07-3.01c0.21-0.09,0.41-0.22,0.76-0.41c-1.48-0.99-2.84-1.93-4.22-2.83c-0.74-0.49-1.36-1.11-1.97-1.74
		c-1.28-1.31-1.52-2.37-0.83-3.51c0.79-1.29,2.47-1.95,3.96-1.56c0.92,0.24,1.66,0.75,2.32,1.41c1.33,1.32,2.65,2.66,4.01,3.95
		c1.56,1.48,1.84,1.5,3.56,0.25c1.55-1.12,3.2-2.13,4.27-3.78c0.36-0.55,0.97-1.11,0.58-1.83c-0.37-0.7-1.14-0.62-1.82-0.62
		c-2.08-0.01-4.15-0.01-6.23-0.01c-4.55,0-9.11,0-13.66,0c-0.48,0-0.95,0.02-1.41-0.2c-0.64-0.3-0.85-0.79-0.78-1.46
		c0.07-0.64,0.54-0.85,1.07-0.96c0.31-0.07,0.64-0.05,0.96-0.05c9.23,0,18.46,0,27.68,0c0.32,0,0.64,0,0.96,0.02
		c2.34,0.18,3.35,2.14,2.06,4.06c-1.58,2.34-3.66,4.2-5.96,5.81C451.28,534.26,449.82,535.21,448.24,536.28z"/>
	<path class="st1" d="M74.11,521.54c-0.08-6.97,1.01-13.12,2.07-19.27c0.38-2.19,0.74-4.39,1.53-6.49c1.36-3.62,6.05-4.57,8.68-1.71
		c1.13,1.24,1.31,2.77,1.06,4.37c-0.64,4.13-2.23,7.96-3.75,11.81c-1.91,4.81-2.98,9.77-3.38,14.94c-0.31,3.91-0.11,7.69,1.15,11.42
		c0.54,1.61,0.12,2.39-1.24,2.85c-1.85,0.62-3.34,0.11-3.94-1.39c-0.8-2.01-1.05-4.17-1.37-6.28
		C74.36,528.17,73.97,524.52,74.11,521.54z"/>
	<path class="st0" d="M407.78,500.37c3.64,0,6.95,0,10.26,0c0.51,0,1.03-0.04,1.54,0.16c0.65,0.26,1.14,0.64,1.06,1.4
		c-0.08,0.72-0.56,1.24-1.25,1.26c-3.78,0.08-7.57,0.72-11.34-0.05c-1.92-0.39-3.62-0.16-5.14,1.16c-1.12,0.97-2.44,1.65-3.78,2.29
		c-0.85,0.41-1.58,0.26-2.14-0.45c-0.59-0.76-0.08-1.38,0.46-1.86c4.13-3.67,7.44-8.01,10.11-12.81c2.05-3.69,9.53-4.02,11.44,0.09
		c1.55,3.33,4.3,5.82,6.75,8.49c0.46,0.5,0.98,1.07,0.46,1.78c-0.47,0.64-1.14,0.86-1.91,0.51c-0.54-0.24-1.11-0.45-1.62-0.75
		c-2.52-1.49-4.81-3.28-6.91-5.31c-0.4-0.39-0.78-0.8-1.2-1.17c-0.71-0.62-1.5-0.67-2.14,0.02
		C410.93,496.76,409.48,498.45,407.78,500.37z"/>
	<path class="st0" d="M100.07,508.12c0.04-0.79-0.14-2.07,0.22-3.32c0.32-1.12,1.2-1.79,2.4-1.77c1.18,0.02,1.89,0.7,2.06,1.79
		c0.8,5.19,3.48,9.51,6.27,13.8c0.93,1.43,1.99,2.79,2.74,4.34c0.7,1.45,1.25,2.96,0.02,4.35c-1.36,1.55-3.14,2.14-5.18,1.66
		c-2.47-0.58-3.82-2.48-5-4.5c-2.1-3.61-3.08-7.55-3.36-11.7C100.15,511.38,100.04,509.99,100.07,508.12z"/>
	<path class="st0" d="M44.86,521.82c0.62-6.06,2.69-11.53,6.68-16.18c0.95-1.11,2.17-1.89,3.78-1.68c1.21,0.16,1.74,0.86,1.17,1.89
		c-2.17,3.97-2.16,8.34-2.5,12.66c-0.13,1.63-0.37,3.24-0.82,4.82c-0.7,2.44-2.65,3.93-4.69,3.61c-2.24-0.35-3.61-2.15-3.62-4.75
		C44.86,522.06,44.86,521.94,44.86,521.82z"/>
	<path class="st0" d="M487.82,540.63c-1.76-0.02-2.69-0.56-3.09-1.64c-0.55-1.46-0.04-2.59,1.45-3.13c1.78-0.64,3.68-0.67,5.52-0.93
		c6.26-0.89,12.48-2.03,18.68-3.28c0.19-0.04,0.39-0.09,0.59-0.11c1.25-0.13,2.16,0.3,2.2,1.13c0.05,1.01-0.79,1.27-1.55,1.53
		c-6.71,2.29-13.46,4.46-20.44,5.83C489.96,540.26,488.74,540.46,487.82,540.63z"/>
	<path class="st0" d="M198.94,542.09c-1.74,0.02-2.98-0.52-3.93-1.77c-2.09-2.77-4.21-5.51-6.32-8.26c-0.42-0.54-0.93-1.12-0.4-1.81
		c0.51-0.66,1.3-0.8,2.07-0.55c0.98,0.32,1.95,0.71,2.9,1.13c3.64,1.6,7.07,3.53,9.83,6.47c0.24,0.26,0.51,0.52,0.69,0.82
		c0.49,0.83,0.59,1.49-0.49,2.08C201.83,540.99,200.56,542.17,198.94,542.09z"/>
	<path class="st0" d="M134.43,542.08c-1.39,0.05-2.55-0.3-3.52-1.16c-1.23-1.09-1.29-2.3-0.04-3.37c1.15-0.98,2.41-1.82,3.65-2.69
		c2.05-1.44,4.12-2.86,6.17-4.3c0.67-0.47,1.4-0.75,2.18-0.93c0.71-0.16,1.19,0.2,1.66,0.69c0.5,0.53,0.18,0.97-0.02,1.41
		c-1.67,3.63-3.81,6.9-7.09,9.29C136.5,541.71,135.52,542.21,134.43,542.08z"/>
	<path class="st0" d="M510.86,520.47c-0.02,1.07-0.62,2.03-1.15,3c-1.6,2.92-3.7,5.46-6.1,7.76c-0.61,0.58-1.29,0.94-2.15,0.53
		c-0.7-0.33-1.05-0.79-0.74-1.61c1.14-3.06,1.85-6.24,2.46-9.44c0.7-3.64,2.96-3.71,5.7-2.74
		C509.97,518.35,510.83,519.04,510.86,520.47z"/>
	<path class="st0" d="M489.07,518.83c0.4-0.05,0.71,0.17,1.03,0.44c3.13,2.59,5.76,5.58,7.62,9.23c0.32,0.63,0.34,1.21,0.13,1.82
		c-0.57,1.62-1.94,2.13-3.45,2.36c-1.17,0.18-2.45-0.54-2.94-1.8c-1.11-2.85-2.11-5.74-3.17-8.62c-0.2-0.56-0.48-1.1-0.64-1.67
		C487.39,519.61,488.03,518.83,489.07,518.83z"/>
	<path class="st0" d="M498.83,492.48c-3.87,0-7.75,0-11.62-0.01c-0.43,0-0.88-0.04-1.3-0.14c-0.57-0.14-0.88-0.59-0.9-1.14
		c-0.02-0.61,0.32-1.06,0.92-1.25c0.26-0.08,0.55-0.12,0.82-0.12c8.03-0.01,16.06-0.01,24.09,0c0.77,0,1.57,0.06,1.7,1.09
		c0.13,1.03-0.35,1.53-1.6,1.55c-2.56,0.03-5.11,0.01-7.67,0.01C501.79,492.48,500.31,492.48,498.83,492.48z"/>
	<path class="st0" d="M180.19,539.9c0.18,2.47-1.8,3.97-4.01,3.06c-1.08-0.44-1.34-1.39-1.54-2.38c-0.27-1.3-0.23-2.61-0.26-3.92
		c-0.04-1.44-0.23-2.85-0.93-4.15c-0.21-0.38-0.5-0.83-0.11-1.21c0.38-0.36,0.88-0.47,1.44-0.33c1.19,0.31,1.99,1.07,2.7,2.04
		C179.05,535.14,180.02,537.51,180.19,539.9z"/>
	<path class="st0" d="M153.51,539.49c0.41-2.7,1.55-5.64,4.1-7.9c0.43-0.38,0.96-0.57,1.51-0.68c0.53-0.12,1.07,0.03,1.42,0.43
		c0.32,0.37-0.09,0.74-0.26,1.08c-0.72,1.46-0.89,3.04-0.98,4.63c-0.06,1.19,0.03,2.38-0.23,3.57c-0.39,1.79-1.45,2.77-2.98,2.62
		C154.45,543.07,153.5,541.91,153.51,539.49z"/>
	<path class="st0" d="M430,429.53c-3.54-5.73-8.6-9.78-14.39-13.03c-2.58-1.45-5.3-2.61-8.08-3.6c-1.08-0.38-1.82-0.94-1.74-2.23
		c0.04-0.64-0.24-1.25-0.57-1.8c-0.89-1.43-2.22-2.12-3.88-2.21c-2.59-0.14-5.19,0.19-7.77-0.19c-0.52-0.08-0.99-0.23-1.13-0.74
		c-0.31-1.1-0.75-2.22-0.76-3.34c-0.02-4.23-0.27-8.43-0.96-12.61c-1.15-6.96-3.49-13.48-6.96-19.61
		c-5.34-9.43-12.86-16.88-21.39-23.42c-8.71-6.68-18.19-12.11-27.96-17.04c-7.13-3.6-14.35-7-21.65-10.23
		c-4.84-2.14-9.97-2.84-15.21-2.36c-5.3,0.48-10.26,2.21-14.99,4.62c-11,5.58-21.97,11.22-32.71,17.29
		c-6.73,3.81-13.06,8.15-18.67,13.48c-5.14,4.88-9.65,10.3-13.34,16.37c-6.31,10.35-9.7,21.47-9.2,33.7
		c0.22,5.39,1.23,10.58,3.05,15.63c3.37,9.36,9.07,17.07,16.75,23.33c6.22,5.08,13.3,8.62,20.9,11.14
		c6.29,2.08,12.72,3.58,19.28,4.53c4.76,0.69,9.55,1.22,14.36,1.51c2.9,0.18,5.8,0.4,8.71,0.48c4.1,0.12,8.17,0.48,12.3,0.28
		c6.61-0.32,13.21-0.62,19.8-1.26c3.45-0.34,6.88-0.79,10.29-1.35c4.56-0.75,9.07-1.74,13.51-3c0.49-0.14,0.84-0.13,1.3,0.22
		c3.66,2.85,7.8,4.81,12.16,6.3c8.22,2.82,16.74,3.82,25.63,4.07c3.4-0.2,7.06-0.36,10.72-0.71c6.1-0.6,12.04-1.84,17.75-4.09
		c5.29-2.08,10.19-4.75,13.91-9.22c2.57-3.09,4.03-6.64,4.02-10.62C433.05,436.15,431.95,432.69,430,429.53z M379.68,415.51
		c-0.57,1.51-0.7,3.09-0.75,4.68c-0.02,0.63-0.13,1.27-0.3,1.88c-0.18,0.64-0.54,1.19-1.33,1.13c-0.79-0.05-1.04-0.66-1.2-1.29
		c-0.07-0.26-0.01-0.55-0.01-0.83c0.29-2.02,0.8-3.97,1.99-5.68c0.21-0.3,0.49-0.52,0.82-0.67c0.3-0.14,0.54-0.05,0.77,0.14
		C379.93,415.07,379.76,415.29,379.68,415.51z M382.58,403.16c-0.35,0.55-0.48,1.16-0.55,1.81c-0.09,0.96-0.6,1.44-1.63,1.53
		c-1.6,0.14-3.19,0.14-5.01,0.15c-1.34,0.14-2.95-0.29-4.47,0.53c-1.53,0.83-2.48,2.01-2.5,3.77c-0.02,1.43-1.09,1.76-2.09,2.11
		c-2.49,0.87-4.91,1.91-7.22,3.18c-5.7,3.13-10.8,6.96-14.37,12.52c-2.54,3.97-3.94,8.28-3.42,13.05c0.31,2.88,1.47,5.45,3.22,7.74
		c0.54,0.7,0.71,1.01-0.4,1.28c-5.49,1.35-11.04,2.39-16.66,3.08c-6.01,0.74-12.05,1.15-18.09,1.48c-2.47,0.13-4.95,0.28-7.4,0.31
		c-4.86,0.06-9.72-0.26-14.57-0.57c-3.34-0.21-6.67-0.44-10.01-0.75c-7.35-0.68-14.6-1.87-21.72-3.82
		c-5.09-1.39-10.05-3.13-14.76-5.53c-5.34-2.71-10.21-6.11-14.39-10.4c-7.29-7.49-11.88-16.37-13.57-26.75
		c-1.6-9.85-0.12-19.27,3.68-28.39c2.96-7.1,7.25-13.36,12.32-19.12c6.67-7.58,14.66-13.43,23.43-18.36
		c10.73-6.02,21.63-11.68,32.62-17.19c5.24-2.63,10.76-4.18,16.7-3.94c3.92,0.16,7.62,1.17,11.16,2.83
		c6.75,3.17,13.56,6.24,20.21,9.63c9.22,4.69,18.2,9.81,26.45,16.09c7.25,5.51,13.83,11.68,18.84,19.37
		c4.64,7.13,7.56,14.87,8.77,23.29c0.35,2.45,0.28,4.93,0.65,7.37c0.19,1.25-0.61,1.35-1.48,1.43
		C384.72,401.06,383.45,401.78,382.58,403.16z M388.4,416.99c-1.04,3.24-1.51,6.51-0.69,9.86c0.15,0.6-0.09,0.95-0.61,1.1
		c-0.65,0.19-1.01-0.25-1.11-0.79c-0.23-1.29-0.42-2.59-0.55-3.89c-0.08-0.75-0.01-1.52-0.01-2.27c-0.06-3.04,0.34-6.03,0.98-8.99
		c0.19-0.9,0.58-1.73,1.71-1.64c1.01,0.08,1.45,0.79,1.41,2.13C389.47,414.06,388.87,415.52,388.4,416.99z M397.43,423.81
		c-1,0.51-2-0.01-2.7-1.44c-0.89-1.83-1.11-3.79-1.16-5.81c0.16-0.74-0.39-1.96,0.73-2.1c1.1-0.14,0.78,1.12,1,1.8
		c0.54,1.68,1.41,3.2,2.24,4.73C398.33,422.46,398.33,423.35,397.43,423.81z"/>
	<path class="st0" d="M260.21,328.67c-5.64-5.99-12.31-10.48-19.93-13.57c-1.22-0.5-1.93-1.36-1.87-2.76
		c0.06-1.19-0.32-2.29-0.95-3.28c-1.28-2.03-3.31-2.67-5.54-2.74c-2.48-0.07-4.96-0.03-7.43-0.02c-1.07,0.01-1.75-0.45-1.95-1.53
		c-0.12-0.62-0.16-1.26-0.32-1.87c-0.81-2.98-3.44-4.8-6.48-4.52c-2.94,0.28-5.17,2.69-5.37,5.8c-0.09,1.47-0.72,2.09-2.17,2.12
		c-1.24,0.02-2.48,0-3.72,0.01c-1.28,0-2.56-0.03-3.84,0.01c-3.57,0.1-6.25,2.56-6.3,5.89c-0.02,1.53-0.65,2.44-2.05,3
		c-6.05,2.44-11.48,5.87-16.35,10.22c-7.42,6.63-12.43,14.55-13.59,24.63c-0.57,4.96,0.4,9.6,2.64,13.99
		c3.38,6.61,8.79,11.14,15.26,14.54c8.34,4.38,17.3,6.58,26.62,7.57c1.31,0.14,1.59-0.25,1.86-1.36c0.9-3.65,2.21-7.16,3.86-10.53
		c6.18-12.61,15.29-22.69,26.75-30.69c6.46-4.51,13.48-8.07,20.38-11.84C261.97,330.48,261.98,330.55,260.21,328.67z M205.69,320.58
		c-1.16,2.71-0.86,5.63-1.32,8.43c-0.01,0.08-0.01,0.16-0.02,0.24c-0.23,1.54-1,2.44-2.05,2.4c-1.02-0.04-1.78-1.21-1.77-3.1
		c0.39-2.61,1.14-5.47,2.98-7.93c0.32-0.42,0.69-0.82,1.22-0.89C205.33,319.64,206.04,319.76,205.69,320.58z M218.66,320.1
		c-0.83,2.74-1.89,5.42-2.19,8.29c-0.29,2.69-0.6,5.38,0.22,8.04c0.23,0.75,0.41,1.55-0.69,1.79c-1.02,0.22-1.42-0.36-1.62-1.26
		c-0.62-2.81-0.82-5.66-0.93-8.68c0.15-4.02,0.7-8.15,1.5-12.25c0.19-0.98,0.53-1.98,1.67-2.27c1.5-0.39,2.81,0.7,2.83,2.39
		C219.47,317.5,219.06,318.8,218.66,320.1z M230.3,332.49c-1.06,0.52-2.17,0.23-2.91-0.81c-1.28-1.79-1.91-3.84-2.14-5.99
		c-0.12-1.1-0.42-2.2-0.29-3.33c0.05-0.71,0.03-1.44,0.16-2.13c0.09-0.52,0.42-0.97,1.04-0.99c0.68-0.02,0.87,0.52,0.95,1.03
		c0.43,2.99,1.88,5.55,3.34,8.11c0.26,0.45,0.54,0.89,0.71,1.37C231.64,331.1,231.34,331.98,230.3,332.49z"/>
	<g>
		<path class="st0" d="M549.26,539.14c-1.8-1.04-3.49-2.23-5.09-3.55c-1.47-1.22-2.83-2.58-4.34-3.73c-1.58-1.2-3.35-1.05-4.83,0.19
			c-1.39,1.17-1.43,2.94-0.01,3.97c4.03,2.92,8.61,4.6,13.38,5.85c0.9,0.24,1.54-0.04,2.06-0.76c0-0.32,0-0.64,0-0.96
			C550.08,539.76,549.72,539.4,549.26,539.14z"/>
		<path class="st0" d="M547.55,524.72c0.01-1.24,0-2.47,0-3.71c0-5.55,0.02-11.1-0.02-16.64c-0.03-3.51-1.37-4.96-4.74-5.17
			c-2.07-0.13-4.14-0.18-6.21-0.22c-1.87-0.04-3.74-0.01-5.92-0.01c1.46-1.84,2.79-3.37,3.94-5.03c0.78-1.13,1.7-1.5,3.02-1.48
			c3.47,0.07,6.95,0.03,10.43,0.01c1.41-0.01,2.02-0.69,1.64-1.82c-0.32-0.93-1.17-0.83-1.91-0.83c-10.47-0.01-20.93-0.01-31.4,0
			c-0.36,0-0.73,0-1.07,0.09c-0.65,0.16-1.06,0.61-1.04,1.28c0.02,0.62,0.41,1.05,1.01,1.19c0.42,0.1,0.87,0.1,1.31,0.1
			c3.44,0.01,6.87,0.03,10.31-0.01c0.92-0.01,1,0.23,0.62,1.01c-0.51,1.03-0.85,2.15-1.37,3.18c-0.83,1.63-2.23,2.45-4.05,2.53
			c-0.68,0.03-1.36,0-2.04,0c-2.82-0.01-4.6,1.65-4.62,4.48c-0.04,7.22-0.03,14.45,0,21.67c0.01,2.58,1.09,4.01,3.34,4.62
			c0.61,0.17,1.25,0.33,1.88,0.33c7.23,0.02,14.46,0.1,21.69-0.02C546.02,530.21,547.53,528.42,547.55,524.72z M540.29,521.82
			c-0.18,1.27-0.11,2.54-0.16,3.81c-0.05,1.22-0.54,1.76-1.73,1.84c-4.58,0.3-9.15,0.3-13.73,0.02c-1.12-0.07-1.66-0.7-1.81-1.71
			c-0.15-1.02-0.3-2.04-0.29-3.08c0.03-1.75,0.57-2.38,2.33-2.41c2.35-0.04,4.71-0.01,7.06-0.01c0-0.01,0-0.02,0-0.03
			c2.27,0,4.55-0.01,6.82,0C540.01,520.25,540.46,520.66,540.29,521.82z M540.19,515.38c-0.36,1.51-0.8,1.96-2.35,1.99
			c-2.27,0.04-4.54,0.01-6.82,0.01c0,0.01,0,0.02,0,0.03c-2.15,0-4.31-0.04-6.46,0.02c-1.17,0.03-1.83-0.28-1.77-1.59
			c0.03-0.71-0.17-1.42-0.16-2.13c0.02-2.03,0.7-2.72,2.74-2.77c1.91-0.05,3.83-0.02,5.74-0.03c2.55,0,5.1,0.02,7.65-0.02
			c1.01-0.01,1.51,0.47,1.54,1.41C540.33,513.32,540.43,514.35,540.19,515.38z M537.02,508.06c-0.12,0-0.24,0-0.36,0
			c-1.84,0-3.67,0-5.51,0c0,0,0,0,0,0c-2.31,0-4.63-0.03-6.94,0.01c-0.96,0.02-1.41-0.34-1.39-1.31c0.02-0.99,0-1.98,0-2.97
			c0.01-1.03,0.53-1.57,1.56-1.77c1.43-0.29,2.86-0.19,4.29-0.2c2.95-0.02,5.9-0.01,8.86,0c2.01,0.01,2.71,0.7,2.8,2.72
			C540.46,507.8,540.23,508.05,537.02,508.06z"/>
		<path class="st0" d="M526.49,531.45c-1.66-0.74-3.27-0.6-4.72,0.56c-1.18,0.94-2.32,1.94-3.5,2.89c-2.66,2.15-5.76,3.56-8.72,5.19
			c-0.57,0.31-1.02,0.68-0.84,1.4c0.18,0.72,0.76,0.85,1.4,0.84c0.12,0,0.24,0,0.36,0c0.52,0,1.02-0.07,1.54-0.18
			c4.14-0.94,8.08-2.45,11.92-4.23c1.16-0.54,2.3-1.13,3.25-1.99C528.77,534.49,528.45,532.32,526.49,531.45z"/>
	</g>
	<path class="st0" d="M409.45,524.82c3.08,0,6.15,0.03,9.23-0.01c3.02-0.04,4.81-1.68,4.86-4.46c0.04-2.95,0.05-5.91,0-8.86
		c-0.04-2.44-1.49-3.87-3.9-4.18c-4.69-0.61-9.39-0.49-14.09-0.2c-3.77,0.23-5,1.55-5,5.34c-0.01,3.99,0,7.98,0,11.98
		c0,5.15-0.01,10.3,0.01,15.45c0.01,2.29,0.73,3.26,2.61,3.67c0.65,0,1.29-0.01,1.94-0.01c1.63-0.28,2.15-1.43,2.35-2.9
		c0.24-1.71,0.27-1.7,2.02-1.7c3.88,0,7.75,0.02,11.63,0c1.57-0.01,2.57-0.65,2.39-1.55c-0.26-1.29-1.36-1.27-2.37-1.28
		c-4.12-0.01-8.23-0.02-12.35,0.01c-0.91,0.01-1.37-0.26-1.28-1.22c0.03-0.32,0-0.64,0-0.96c-0.01-1.89,0.24-2.15,2.12-2.15
		c3.88,0,7.75,0.01,11.63,0.01c0.4,0,0.8,0.01,1.2-0.04c0.65-0.09,0.98-0.58,1.05-1.15c0.08-0.6-0.22-1.05-0.85-1.27
		c-0.51-0.18-1.01-0.2-1.53-0.2c-4.04,0-8.07-0.01-12.11,0.02c-1.05,0.01-1.59-0.39-1.51-1.49c0.02-0.28,0-0.56,0-0.84
		C407.47,525.04,407.69,524.82,409.45,524.82z M409.45,509.75c1.87-0.09,3.74-0.06,5.61-0.02c0.97,0.02,1.68,0.55,1.91,1.5
		c0.17,0.69,0.27,1.41,0.28,2.11c0.01,0.58-0.26,1.02-0.94,1.19c-1.34,0.33-2.7,0.11-4.04,0.21c-1.31-0.11-2.63,0.16-3.92-0.2
		c-0.31-0.08-0.61-0.13-0.82-0.42C406.58,512.8,407.82,509.83,409.45,509.75z M407.46,520.98c-0.47-3.34,0.21-3.52,3.27-3.56
		c1.63-0.02,3.27-0.23,4.88,0.2c1.25,0.33,1.83,1.07,1.7,2.21c-0.17,1.5-0.91,2.3-2.22,2.34c-1.08,0.03-2.15,0.01-3.23,0.01
		c0,0.01,0,0.01,0,0.02c-1.04,0-2.07-0.01-3.11,0C407.9,522.2,407.57,521.81,407.46,520.98z"/>
	<path class="st0" d="M458.84,500.68c-0.1-1.99,0.01-3.99-0.03-5.99c-0.05-2.51-1.79-4.27-4.3-4.39c-1.03-0.05-2.08-0.17-3.1-0.17
		c-6.31-0.02-12.62-0.24-18.92,0.17c-2.2,0.14-3.8,1.55-4.17,3.75c-0.44,2.53-0.27,5.1-0.13,7.64c0.12,2.07,1.26,3.59,3.41,4.1
		c0.81,0.19,1.63,0.34,2.48,0.34c3.16-0.02,6.31-0.01,9.47-0.01c0,0,0,0,0,0c3.28,0,6.55,0.06,9.83-0.02
		C456.64,506.02,459.04,504.55,458.84,500.68z M452.03,500.91c-0.22,1.82-0.56,2.18-2.34,2.37c-3.9,0.4-7.8,0.12-11.71,0.15
		c-1.72,0.01-2.55-0.72-2.84-2.03c-0.29-1.32,0.21-1.97,1.58-1.98c2.35-0.01,4.71,0,7.06,0c0,0,0-0.01,0-0.01c2.31,0,4.63,0,6.94,0
		C451.74,499.42,452.15,499.9,452.03,500.91z M450.51,496.78c-2.39,0.02-4.78,0.01-7.17,0.01c0,0,0-0.01,0-0.01
		c-2.15,0-4.3,0-6.46,0c-0.74,0-1.59,0.21-1.78-0.89c-0.19-1.06,0.33-2.32,1.16-2.66c0.48-0.2,0.98-0.29,1.51-0.29
		c3.91,0.01,7.81-0.01,11.72,0.01c1.56,0.01,2.34,0.64,2.56,1.96C452.24,496.07,451.69,496.77,450.51,496.78z"/>
	<path class="st0" d="M461.19,513.58c-0.07-3.15-1.73-5-4.86-5.03c-8.34-0.07-16.69-0.07-25.03,0c-3.31,0.03-4.54,1.08-5.02,3.95
		c-0.23,1.38-0.23,2.8-0.01,4.17c0.39,2.5,2.08,3.78,4.98,3.81c4.11,0.04,8.22,0.01,12.34,0.01c0,0,0,0,0,0c4.03,0,8.06,0.02,12.1,0
		c3.78-0.02,5.5-1.76,5.51-5.49C461.19,514.54,461.2,514.06,461.19,513.58z M436.31,516.7c0.01,0.85-0.4,1.17-1.16,1.14
		c-2.49-0.07-3.07-0.73-2.94-3.51c0-2.5,0.98-3.49,3.14-3.17c0.61,0.09,1.08,0.35,1.07,1.05
		C436.39,513.72,436.3,515.21,436.31,516.7z M445.62,512.86c-0.04,0.51-0.01,1.03-0.01,1.55c0,0.6,0,1.19,0,1.79
		c0,1.37-0.79,1.85-2.75,1.66c-1.19-0.12-1.64-0.73-1.44-1.94c0.16-0.95,0.15-1.89-0.01-2.84c-0.2-1.21,0.28-1.83,1.47-1.92
		c0.4-0.03,0.8-0.03,1.19,0.01C445.08,511.28,445.72,511.73,445.62,512.86z M454.74,515.75c-0.07,1.73-2.25,2.84-3.75,1.93
		c-0.43-0.26-0.54-0.67-0.54-1.12c-0.01-0.68,0-1.35,0-2.03c0,0,0,0,0,0c0-0.52,0-1.04,0-1.55c0.01-1.51,0.23-1.79,1.41-1.81
		c2-0.04,2.86,0.49,2.89,1.83C454.76,513.91,454.77,514.83,454.74,515.75z"/>
	<path class="st0" d="M510.89,503.21c-0.42-2.24-1.44-3.06-3.7-3.35c-1.39-0.18-2.78-0.18-4.17-0.3c-4.39-0.36-8.77-0.2-13.12,0.44
		c-2.28,0.33-3.17,1.72-3.31,4c-0.16,2.67-0.14,5.33,0.01,7.99c0.11,1.9,0.87,3.08,2.67,3.69c1.71,0.58,3.52,0.86,5.3,0.68
		c2.24-0.23,4.47-0.05,6.96-0.17c1.5,0,3.26,0.05,5.02-0.01c2.61-0.08,4.21-1.42,4.48-3.93
		C511.34,509.25,511.45,506.22,510.89,503.21z M503.88,510.72c-0.04,1.98-0.88,2.78-2.9,2.83c-1.48,0.03-2.96,0.02-4.43,0
		c-1.97-0.03-2.64-0.69-2.7-2.68c-0.03-1.04-0.01-2.07-0.01-3.11c0-1.04-0.03-2.08,0.01-3.11c0.06-1.5,0.81-2.29,2.31-2.34
		c1.8-0.05,3.59-0.06,5.39,0c1.55,0.05,2.34,0.9,2.35,2.43C503.91,506.73,503.92,508.73,503.88,510.72z"/>
	<path class="st0" d="M292.85,352.47c0.17-6.17,0.93-12.27,2.16-18.32c0.09-0.43,0.22-0.85,0.39-1.25c0.73-1.69,1.74-2.23,3.52-1.92
		c1.51,0.26,2.5,1.49,2.6,3.13c0.15,2.49-0.63,4.8-1.34,7.12c-1.07,3.54-2.44,6.99-2.85,10.7c-0.47,4.24-0.94,8.5,0.36,12.67
		c0.46,1.48-0.31,2.53-2.08,2.34c-1.07-0.12-1.36-0.99-1.5-1.78c-0.4-2.19-0.79-4.39-0.97-6.6
		C292.97,356.53,292.67,354.51,292.85,352.47z"/>
	<path class="st0" d="M309.67,343.14c0.07-0.91,0.1-1.86,0.22-2.81c0.11-0.89,0.79-1.3,1.59-1.35c0.75-0.05,1.16,0.52,1.25,1.2
		c0.61,4.8,3.11,8.81,5.36,12.92c0.25,0.45,0.48,0.91,0.67,1.39c0.71,1.78,0.29,3.17-1.19,4c-1.38,0.78-3.05,0.42-4.16-0.91
		c-1.11-1.34-1.81-2.9-2.34-4.54c-0.74-2.28-1.16-4.62-1.22-7.02C309.84,345.08,309.74,344.13,309.67,343.14z"/>
	<path class="st0" d="M273.91,353.22c0.35-4.41,1.66-8.49,4.21-12.14c0.25-0.36,0.59-0.66,0.92-0.94c0.67-0.58,1.42-0.77,2.19-0.22
		c0.75,0.53,0.25,1.19,0.01,1.72c-1.02,2.31-1.17,4.78-1.31,7.24c-0.09,1.71-0.24,3.41-0.53,5.1c-0.08,0.47-0.24,0.93-0.42,1.36
		c-0.57,1.35-1.6,2.06-2.73,1.92c-1.1-0.14-2.21-1.4-2.33-2.72C273.88,354.1,273.91,353.66,273.91,353.22z"/>
	<g>
		<path class="st0" d="M202.92,523.87c-0.87-0.4-1.76-0.74-2.75-0.73c-1.8,0.02-3.6-0.01-5.4-0.01c-8.03,0-16.07-0.03-24.1,0.02
			c-1.14,0.01-1.45-0.34-1.37-1.41c0.09-1.19,0.09-2.4,0-3.59c-0.08-1.04,0.34-1.23,1.3-1.25c2.8-0.06,5.59,0.17,8.37,0.29
			c2.18,0.09,4.35,0.48,6.54,0.61c2.67,0.17,5.36,0.29,7.91-0.76c0.88-0.36,2.39-0.71,2.26-1.55c-0.14-0.96-1.58-1.23-2.64-1.51
			c-1.29-0.34-2.53,0.09-3.8,0.08c-5.63-0.06-11.27-0.02-16.91-0.02c-3.09,0-3.06,0-3.02-3.09c0.01-0.79,0.26-1.02,1.03-1.01
			c2.8,0.04,5.6,0.05,8.39,0.01c3.87-0.05,7.74,0.17,11.61-0.22c3.23-0.33,5.07-2.24,5.16-5.45c0.06-2.07,0.2-4.14,0.43-6.19
			c0.27-2.5-0.37-4.44-2.71-5.72c-1.42-0.77-2.87-1.43-4.42-1.79c-4.82-1.14-9.68-1.7-14.67-1.55c-5.06,0.16-10.14,0.18-15.21-0.08
			c-3.11-0.16-6.2,0.32-9.27,0.77c-2.41,0.35-4.77,0.92-7.03,1.86c-3.23,1.35-4.45,3.06-4.19,6.04c0.21,2.38,0.37,4.76,0.45,7.15
			c0.07,2.33,1.29,3.88,3.53,4.57c1.34,0.41,2.72,0.6,4.12,0.6c5.24,0.02,10.47,0.01,15.71,0.01c2.81,0,2.76,0,2.83,2.81
			c0.03,1.11-0.36,1.31-1.37,1.3c-4.68-0.05-9.35,0-14.03-0.04c-2.39-0.02-4.78,0.12-7.18-0.16c-1.27-0.15-2.51,0.36-3.55,1.18
			c-0.42,0.33-0.6,0.59,0.03,0.95c1.01,0.57,2.02,1.1,3.15,1.42c3.12,0.88,6.27,0.42,9.39,0.14c4.21-0.38,8.42-0.65,12.65-0.64
			c0.87,0,1.1,0.36,1.08,1.15c-0.04,1.24-0.09,2.48,0.01,3.71c0.09,1.13-0.32,1.39-1.4,1.38c-9.79-0.04-19.58-0.01-29.38-0.02
			c-1.07,0-2.05,0.28-2.99,0.72c-0.41,0.19-0.76,0.47-0.74,0.99c0.03,0.57,0.43,0.81,0.89,1.01c0.54,0.23,1.1,0.15,1.66,0.15
			c11.27,0.01,22.54,0,33.81,0c11.35,0,22.7,0,34.05,0c0.55,0,1.12,0.07,1.65-0.19c0.42-0.2,0.77-0.44,0.8-0.95
			C203.67,524.35,203.33,524.06,202.92,523.87z M165.27,493.08c-0.09,2.07-0.03,4.15-0.03,6.22c0,2.23-0.03,4.47,0.02,6.7
			c0.02,0.81-0.19,1.12-1.06,1.11c-4.35-0.04-8.7,0.05-13.05-0.05c-2.91-0.07-3.25-1.25-3.18-3.13c0.1-3.07,0.02-6.14,0.05-9.21
			c0.01-1.9,1.08-2.86,2.94-3c4.26-0.32,8.53-0.07,12.8-0.2C165,491.47,165.32,491.89,165.27,493.08z M169.13,492.68
			c-0.01-0.9,0.32-1.17,1.19-1.16c4.51,0.08,9.02-0.13,13.52,0.21c1.38,0.1,2.51,1.15,2.52,2.53c0.03,3.51,0.02,7.02,0.03,10.53
			c0,1.12-0.58,1.78-1.64,2.05c-0.58,0.15-1.16,0.26-1.77,0.25c-2.08-0.02-4.15-0.01-6.23-0.01c-2.2,0-4.39-0.03-6.59,0.02
			c-0.78,0.02-1.04-0.22-1.03-1.01C169.16,501.62,169.16,497.15,169.13,492.68z"/>
		<path class="st0" d="M173.76,504.48c0.92,0.45,1.51-0.19,2.1-0.7c0.45-0.39,0.81-0.87,1.2-1.32c1.04-1.2,1.98-2.5,3.46-3.23
			c0.71-0.35,0.69-1.07,0.02-1.6c-0.55-0.43-1.2-0.45-1.83-0.31c-1.95,0.43-3.66,1.33-5.07,2.75c-0.61,0.61-1.04,1.31-1.02,2.22
			C172.66,503.18,172.84,504.03,173.76,504.48z"/>
		<path class="st0" d="M159.9,497.43c-0.5-0.23-1.03-0.24-1.53-0.12c-1.53,0.37-2.95,0.99-4.15,2.03c-0.94,0.81-1.87,1.65-1.89,3.04
			c0,0.96,0.5,1.75,1.29,2.12c0.8,0.37,1.28-0.15,1.79-0.59c0.3-0.26,0.56-0.56,0.84-0.84c1.24-1.23,2.1-2.83,3.73-3.66
			c0.36-0.18,0.96-0.24,0.86-0.83C160.76,498.06,160.41,497.67,159.9,497.43z"/>
	</g>
	<g>
		<path class="st0" d="M319.69,415.31c0.5-0.04,0.99-0.19,1.07-0.77c0.07-0.5-0.31-0.75-0.71-1c-0.73-0.45-1.53-0.4-2.32-0.4
			c-6.23,0-12.47-0.02-18.7,0.01c-0.86,0-1.25-0.19-1.17-1.12c0.08-0.95,0.04-1.92,0.01-2.87c-0.02-0.63,0.24-0.83,0.85-0.83
			c2.83,0.02,5.65,0.04,8.48,0.41c2.11,0.28,4.29,0.63,6.36-0.28c0.76-0.33,1.78-0.5,1.91-1.49c0.08-0.53-1.77-1.26-2.7-1.18
			c-4.7,0.4-9.42,0.08-14.13,0.19c-0.58,0.01-0.79-0.22-0.76-0.78c0.02-0.36,0.05-0.73-0.01-1.08c-0.17-1.08,0.29-1.33,1.33-1.32
			c4.03,0.05,8.06,0.09,12.09-0.17c2.4-0.15,3.91-1.43,4.07-3.7c0.16-2.26,0.17-4.54,0.28-6.81c0.06-1.34-0.57-2.27-1.6-3.02
			c-2.87-2.1-6.28-2.64-9.64-2.71c-5.94-0.13-11.9-0.39-17.84,0.18c-2.39,0.23-4.73,0.78-6.84,1.99c-1.58,0.9-2.68,2.12-2.46,4.14
			c0.22,1.98,0.18,3.98,0.28,5.97c0.13,2.53,1.64,3.79,4.19,3.98c3.75,0.28,7.5,0.12,11.25,0.18c2.3,0.04,1.98-0.44,2.05,2.14
			c0.02,0.79-0.24,1.04-1.02,1.02c-2.28-0.04-4.55-0.01-6.83-0.02c-2.2-0.01-4.4,0.04-6.59-0.1c-0.98-0.06-1.8,0.14-2.61,0.57
			c-0.8,0.43-0.67,0.86,0,1.29c1.6,1.02,3.35,1.43,5.24,1.24c3.65-0.37,7.29-0.77,10.97-0.65c0.6,0.02,0.87,0.2,0.85,0.83
			c-0.03,0.92-0.07,1.84,0.01,2.75c0.1,1.04-0.34,1.25-1.3,1.25c-6.35-0.03-12.71-0.01-19.06-0.01c-0.7,0-1.34,0.11-1.95,0.47
			c-0.39,0.23-0.58,0.52-0.53,0.97c0.06,0.5,0.43,0.65,0.84,0.71c0.39,0.05,0.8,0.04,1.2,0.04c7.39,0,14.78,0,22.18,0
			s14.78,0,22.18,0C318.98,415.32,319.34,415.33,319.69,415.31z M298.97,388.24c2.83,0.07,5.66-0.07,8.49,0.2
			c0.99,0.1,1.56,0.65,1.7,1.55c0.44,2.85,0.21,5.73,0.18,8.6c-0.01,1.26-0.73,1.84-2.03,1.86c-2.84,0.03-5.67-0.01-8.51,0.03
			c-0.76,0.01-0.95-0.28-0.94-0.98c0.04-1.72,0.01-3.43,0.01-5.15c0-1.64,0.04-3.27-0.02-4.91
			C297.83,388.59,298.01,388.22,298.97,388.24z M295.22,394.5c0,1.67-0.03,3.35,0.01,5.02c0.02,0.74-0.24,0.97-0.97,0.96
			c-2.83-0.03-5.66,0.01-8.5-0.02c-1.48-0.02-1.98-0.6-2.07-2.03c-0.16-2.58-0.1-5.16,0.02-7.74c0.07-1.53,0.65-2.08,2.15-2.25
			c2.75-0.31,5.5-0.09,8.24-0.18c0.82-0.03,1.14,0.26,1.12,1.1C295.19,391.07,295.22,392.78,295.22,394.5z"/>
		<path class="st0" d="M320.25,423.95c-2.22-2.54-4.99-4.31-8.08-5.61c-0.59-0.25-1.12-0.17-1.55,0.24c-0.5,0.49-0.11,0.99,0.16,1.4
			c1.47,2.32,2.95,4.64,4.47,6.93c0.49,0.74,1.28,1.05,2.17,1.11c1-0.04,1.82-0.52,2.57-1.13
			C321.34,425.8,321.42,425.29,320.25,423.95z"/>
		<path class="st0" d="M280.21,418.23c-0.51,0.09-0.97,0.3-1.38,0.65c-1.95,1.64-3.9,3.28-5.89,4.87c-0.83,0.66-1.52,1.34-1.18,2.49
			c0.28,0.97,1.56,1.76,2.75,1.77c0.85,0.01,1.52-0.38,2.14-0.91c2.36-2,3.68-4.67,4.78-7.47
			C281.72,418.88,281.02,418.09,280.21,418.23z"/>
		<path class="st0" d="M291.1,419.19c-0.54,0-0.98,0.35-1.3,0.77c-1.45,1.87-2.24,4-2.47,6.35c0,0.12,0,0.24,0,0.36
			c0.04,1.22,0.68,2.01,1.68,2.09c1.22,0.09,1.61-0.27,1.98-1.7c0.15-0.59,0.18-1.18,0.18-1.77c0-1.75,0.06-3.49,0.8-5.14
			C292.37,419.27,291.65,419.19,291.1,419.19z"/>
		<path class="st0" d="M301.77,419.29c-0.4-0.17-0.77-0.18-1.12,0.1c-0.4,0.32-0.14,0.64-0.02,0.96c0.45,1.16,0.66,2.37,0.62,3.62
			c-0.04,1.12,0.02,2.23,0.29,3.32c0.18,0.71,0.5,1.34,1.38,1.46c0.91,0.13,1.54-0.25,2.01-0.98c0.27-0.44,0.16-0.93,0.21-1.56
			c-0.12-2.09-0.87-4.12-2.18-5.93C302.65,419.86,302.26,419.5,301.77,419.29z"/>
		<path class="st0" d="M290.85,392.79c-1.07,0.12-1.93,0.72-2.74,1.34c-0.87,0.67-1.53,1.51-1.5,2.82
			c-0.07,0.64,0.22,1.28,0.92,1.52c0.65,0.22,1.07-0.35,1.45-0.82c0.85-1.04,1.43-2.3,2.56-3.11c0.34-0.24,0.86-0.36,0.62-0.97
			C291.93,392.97,291.47,392.72,290.85,392.79z"/>
		<path class="st0" d="M300.88,398.43c0.71,0.37,1.09-0.26,1.49-0.67c0.25-0.25,0.44-0.56,0.66-0.85c0.66-0.84,1.13-1.83,2.1-2.41
			c0.31-0.19,0.78-0.34,0.58-0.89c-0.19-0.5-0.54-0.77-1.07-0.82c-1.76-0.17-4.57,2.29-4.58,4.31
			C300.06,397.49,300.26,398.11,300.88,398.43z"/>
	</g>
</g>
</svg>
