<svg xmlns="http://www.w3.org/2000/svg" xmlns:xlink="http://www.w3.org/1999/xlink" width="971" zoomAndPan="magnify" viewBox="0 0 728.25 516.000002" height="688" preserveAspectRatio="xMidYMid meet" version="1.0"><defs><g/><clipPath id="69b99d76bb"><path d="M 0.328125 0 L 727.171875 0 L 727.171875 515 L 0.328125 515 Z M 0.328125 0 " clip-rule="nonzero"/></clipPath><clipPath id="56c3feb659"><path d="M 0.328125 0 L 726.917969 0 L 726.917969 514.824219 L 0.328125 514.824219 Z M 0.328125 0 " clip-rule="nonzero"/></clipPath><clipPath id="7dc52e12b5"><path d="M 188.1875 0 L 539.316406 0 L 539.316406 515 L 188.1875 515 Z M 188.1875 0 " clip-rule="nonzero"/></clipPath><clipPath id="a451cd152c"><path d="M 0.1875 0 L 351.316406 0 L 351.316406 515 L 0.1875 515 Z M 0.1875 0 " clip-rule="nonzero"/></clipPath><clipPath id="5d073204cc"><rect x="0" width="352" y="0" height="515"/></clipPath><clipPath id="cd930ca080"><path d="M 232 89.429688 L 262.695312 89.429688 L 262.695312 120 L 232 120 Z M 232 89.429688 " clip-rule="nonzero"/></clipPath><clipPath id="cb9d1a9d5f"><path d="M 187.867188 89.429688 L 262.695312 89.429688 L 262.695312 220 L 187.867188 220 Z M 187.867188 89.429688 " clip-rule="nonzero"/></clipPath><clipPath id="01a9d4fd48"><path d="M 232 261.605469 L 262.695312 261.605469 L 262.695312 292 L 232 292 Z M 232 261.605469 " clip-rule="nonzero"/></clipPath><clipPath id="243384c4d3"><path d="M 187.867188 261.605469 L 262.695312 261.605469 L 262.695312 392.554688 L 187.867188 392.554688 Z M 187.867188 261.605469 " clip-rule="nonzero"/></clipPath><clipPath id="efca2197da"><path d="M 344.726562 196.871094 L 601.117188 196.871094 L 601.117188 368.125 L 344.726562 368.125 Z M 344.726562 196.871094 " clip-rule="nonzero"/></clipPath><clipPath id="d2d644d5f7"><path d="M 0.726562 0.871094 L 257 0.871094 L 257 172.125 L 0.726562 172.125 Z M 0.726562 0.871094 " clip-rule="nonzero"/></clipPath><clipPath id="b4f9681b51"><rect x="0" width="258" y="0" height="173"/></clipPath><clipPath id="ff28e1791a"><path d="M 426 272 L 450 272 L 450 287 L 426 287 Z M 426 272 " clip-rule="nonzero"/></clipPath><clipPath id="0b2d754bff"><path d="M 417.230469 283.921875 L 474.375 226.777344 L 528.875 281.277344 L 471.726562 338.421875 Z M 417.230469 283.921875 " clip-rule="nonzero"/></clipPath><clipPath id="89e901706f"><path d="M 417.230469 283.921875 L 474.375 226.777344 L 528.875 281.277344 L 471.726562 338.421875 Z M 417.230469 283.921875 " clip-rule="nonzero"/></clipPath><clipPath id="0daef92c8a"><path d="M 435 244 L 508 244 L 508 317 L 435 317 Z M 435 244 " clip-rule="nonzero"/></clipPath><clipPath id="03580ce110"><path d="M 417.230469 283.921875 L 474.375 226.777344 L 528.875 281.277344 L 471.726562 338.421875 Z M 417.230469 283.921875 " clip-rule="nonzero"/></clipPath><clipPath id="8fb303eac5"><path d="M 417.230469 283.921875 L 474.375 226.777344 L 528.875 281.277344 L 471.726562 338.421875 Z M 417.230469 283.921875 " clip-rule="nonzero"/></clipPath><clipPath id="7d0be74dcf"><path d="M 446 254 L 450 254 L 450 258 L 446 258 Z M 446 254 " clip-rule="nonzero"/></clipPath><clipPath id="0989c833ef"><path d="M 417.230469 283.921875 L 474.375 226.777344 L 528.875 281.277344 L 471.726562 338.421875 Z M 417.230469 283.921875 " clip-rule="nonzero"/></clipPath><clipPath id="2c7dab2c32"><path d="M 417.230469 283.921875 L 474.375 226.777344 L 528.875 281.277344 L 471.726562 338.421875 Z M 417.230469 283.921875 " clip-rule="nonzero"/></clipPath><clipPath id="586356eb0b"><rect x="0" width="728" y="0" height="515"/></clipPath></defs><g clip-path="url(#69b99d76bb)"><path fill="#171717" d="M 0.328125 0 L 727.171875 0 L 727.171875 515 L 0.328125 515 Z M 0.328125 0 " fill-opacity="1" fill-rule="nonzero"/><g transform="matrix(1, 0, 0, 1, -0.000000000000000056, 0.000000000000127119)"><g clip-path="url(#586356eb0b)"><g clip-path="url(#56c3feb659)"><path fill="#171717" d="M 0.328125 0 L 726.917969 0 L 726.917969 514.824219 L 0.328125 514.824219 Z M 0.328125 0 " fill-opacity="1" fill-rule="nonzero"/></g><g clip-path="url(#7dc52e12b5)"><g transform="matrix(1, 0, 0, 1, 188, 0.000000000000127119)"><g clip-path="url(#5d073204cc)"><g clip-path="url(#a451cd152c)"><path fill="#2e406f" d="M 0.1875 -113.871094 L 351.316406 -113.871094 L 351.316406 532.152344 L 0.1875 532.152344 Z M 0.1875 -113.871094 " fill-opacity="1" fill-rule="nonzero"/></g></g></g></g><g clip-path="url(#cd930ca080)"><path fill="#ffd9f9" d="M 262.257812 119.601562 C 262.175781 119.601562 262.097656 119.589844 262.019531 119.5625 L 240.859375 112.058594 C 240.644531 111.980469 240.496094 111.835938 240.421875 111.617188 L 232.914062 90.460938 C 232.8125 90.171875 232.871094 89.917969 233.097656 89.703125 C 233.320312 89.492188 233.574219 89.441406 233.859375 89.554688 L 254.210938 97.863281 C 254.398438 97.9375 254.53125 98.070312 254.609375 98.257812 L 262.921875 118.617188 C 262.964844 118.726562 262.980469 118.84375 262.96875 118.960938 C 262.957031 119.078125 262.917969 119.1875 262.851562 119.285156 C 262.785156 119.382812 262.699219 119.460938 262.59375 119.519531 C 262.488281 119.574219 262.375 119.601562 262.257812 119.601562 Z M 241.660156 110.8125 L 260.984375 117.667969 L 253.394531 99.082031 L 234.804688 91.492188 Z M 241.660156 110.8125 " fill-opacity="1" fill-rule="nonzero"/></g><g clip-path="url(#cb9d1a9d5f)"><path fill="#ffd9f9" d="M 262.976562 118.726562 C 262.917969 118.46875 262.761719 118.292969 262.511719 118.207031 L 241.664062 110.8125 L 234.273438 89.964844 C 234.230469 89.847656 234.164062 89.75 234.074219 89.667969 C 233.980469 89.585938 233.875 89.53125 233.753906 89.503906 C 233.632812 89.480469 233.515625 89.484375 233.394531 89.515625 C 233.277344 89.550781 233.175781 89.613281 233.085938 89.699219 L 132.765625 190.03125 L 132.738281 190.0625 L 132.71875 190.078125 C 132.492188 190.292969 132.433594 190.546875 132.539062 190.839844 L 140.042969 211.996094 C 140.058594 212.03125 140.074219 212.0625 140.09375 212.097656 L 140.113281 212.132812 C 140.140625 212.171875 140.171875 212.210938 140.207031 212.246094 C 140.242188 212.28125 140.28125 212.3125 140.320312 212.339844 L 140.351562 212.359375 C 140.386719 212.375 140.421875 212.390625 140.457031 212.40625 L 161.613281 219.910156 C 161.691406 219.9375 161.773438 219.953125 161.855469 219.953125 C 162.0625 219.953125 162.234375 219.878906 162.375 219.730469 L 162.375 219.710938 L 162.410156 219.679688 L 262.761719 119.394531 C 262.957031 119.210938 263.03125 118.988281 262.976562 118.726562 Z M 134.136719 190.695312 L 233.296875 91.535156 L 240.269531 111.191406 L 141.019531 210.441406 L 134.09375 190.929688 C 134.121094 190.851562 134.132812 190.773438 134.136719 190.695312 Z M 161.785156 218.339844 C 161.703125 218.339844 161.625 218.355469 161.550781 218.382812 L 142.03125 211.460938 L 241.285156 112.207031 L 260.941406 119.183594 Z M 161.785156 218.339844 " fill-opacity="1" fill-rule="nonzero"/></g><g clip-path="url(#01a9d4fd48)"><path fill="#ffd9f9" d="M 262.257812 291.777344 C 262.175781 291.777344 262.097656 291.765625 262.019531 291.738281 L 240.859375 284.234375 C 240.644531 284.15625 240.496094 284.011719 240.421875 283.792969 L 232.914062 262.636719 C 232.8125 262.34375 232.871094 262.09375 233.097656 261.878906 C 233.320312 261.664062 233.574219 261.617188 233.859375 261.730469 L 254.210938 270.039062 C 254.398438 270.113281 254.53125 270.246094 254.609375 270.433594 L 262.921875 290.792969 C 262.964844 290.902344 262.980469 291.015625 262.96875 291.136719 C 262.957031 291.253906 262.917969 291.363281 262.851562 291.460938 C 262.785156 291.558594 262.699219 291.636719 262.59375 291.691406 C 262.488281 291.75 262.375 291.777344 262.257812 291.777344 Z M 241.660156 282.988281 L 260.984375 289.84375 L 253.394531 271.257812 L 234.804688 263.667969 Z M 241.660156 282.988281 " fill-opacity="1" fill-rule="nonzero"/></g><g clip-path="url(#243384c4d3)"><path fill="#ffd9f9" d="M 262.976562 290.902344 C 262.917969 290.640625 262.761719 290.46875 262.511719 290.382812 L 241.664062 282.988281 L 234.273438 262.140625 C 234.230469 262.023438 234.164062 261.925781 234.074219 261.84375 C 233.980469 261.761719 233.875 261.707031 233.753906 261.679688 C 233.632812 261.652344 233.515625 261.65625 233.394531 261.691406 C 233.277344 261.726562 233.175781 261.789062 233.085938 261.875 L 132.765625 362.207031 L 132.738281 362.238281 L 132.71875 362.253906 C 132.492188 362.46875 132.433594 362.722656 132.539062 363.015625 L 140.042969 384.171875 C 140.058594 384.203125 140.074219 384.238281 140.09375 384.269531 L 140.113281 384.308594 C 140.140625 384.347656 140.171875 384.386719 140.207031 384.421875 C 140.242188 384.457031 140.28125 384.488281 140.320312 384.515625 L 140.351562 384.535156 C 140.386719 384.550781 140.421875 384.566406 140.457031 384.582031 L 161.613281 392.085938 C 161.691406 392.113281 161.773438 392.128906 161.855469 392.128906 C 162.0625 392.128906 162.234375 392.054688 162.375 391.90625 L 162.375 391.882812 L 162.410156 391.855469 L 262.761719 291.570312 C 262.957031 291.386719 263.03125 291.164062 262.976562 290.902344 Z M 134.136719 362.871094 L 233.296875 263.710938 L 240.269531 283.367188 L 141.019531 382.617188 L 134.09375 363.101562 C 134.121094 363.027344 134.132812 362.949219 134.136719 362.871094 Z M 161.785156 390.515625 C 161.703125 390.515625 161.625 390.527344 161.550781 390.558594 L 142.03125 383.636719 L 241.285156 284.382812 L 260.941406 291.355469 Z M 161.785156 390.515625 " fill-opacity="1" fill-rule="nonzero"/></g><g fill="#ffffff" fill-opacity="1"><g transform="translate(51.80284, 356.401914)"><g><path d="M 8.359375 0.265625 C 6.992188 0.265625 5.773438 -0.0390625 4.703125 -0.65625 C 3.640625 -1.28125 2.800781 -2.140625 2.1875 -3.234375 C 1.582031 -4.328125 1.28125 -5.578125 1.28125 -6.984375 C 1.28125 -8.410156 1.582031 -9.664062 2.1875 -10.75 C 2.800781 -11.832031 3.640625 -12.679688 4.703125 -13.296875 C 5.773438 -13.910156 6.992188 -14.21875 8.359375 -14.21875 C 9.421875 -14.21875 10.40625 -14.019531 11.3125 -13.625 C 12.21875 -13.238281 12.992188 -12.691406 13.640625 -11.984375 C 14.296875 -11.273438 14.773438 -10.425781 15.078125 -9.4375 L 13.8125 -9.4375 C 13.40625 -10.539062 12.71875 -11.410156 11.75 -12.046875 C 10.78125 -12.691406 9.65625 -13.015625 8.375 -13.015625 C 7.25 -13.015625 6.242188 -12.757812 5.359375 -12.25 C 4.472656 -11.75 3.773438 -11.046875 3.265625 -10.140625 C 2.765625 -9.234375 2.515625 -8.179688 2.515625 -6.984375 C 2.515625 -5.796875 2.765625 -4.742188 3.265625 -3.828125 C 3.773438 -2.921875 4.472656 -2.210938 5.359375 -1.703125 C 6.242188 -1.203125 7.25 -0.953125 8.375 -0.953125 C 9.675781 -0.953125 10.828125 -1.285156 11.828125 -1.953125 C 12.835938 -2.617188 13.535156 -3.53125 13.921875 -4.6875 L 15.203125 -4.6875 C 14.921875 -3.6875 14.445312 -2.8125 13.78125 -2.0625 C 13.125 -1.320312 12.332031 -0.75 11.40625 -0.34375 C 10.476562 0.0625 9.460938 0.265625 8.359375 0.265625 Z M 8.359375 0.265625 "/></g></g></g><g fill="#ffffff" fill-opacity="1"><g transform="translate(68.198857, 356.401914)"><g><path d="M 2.0625 0 L 2.0625 -14.765625 L 3.21875 -14.765625 L 3.21875 -8.4375 C 3.625 -9.144531 4.164062 -9.675781 4.84375 -10.03125 C 5.519531 -10.394531 6.265625 -10.578125 7.078125 -10.578125 C 8.421875 -10.578125 9.472656 -10.144531 10.234375 -9.28125 C 11.003906 -8.414062 11.390625 -7.238281 11.390625 -5.75 L 11.390625 0 L 10.234375 0 L 10.234375 -5.640625 C 10.234375 -6.828125 9.9375 -7.757812 9.34375 -8.4375 C 8.75 -9.113281 7.941406 -9.453125 6.921875 -9.453125 C 6.203125 -9.453125 5.5625 -9.28125 5 -8.9375 C 4.445312 -8.601562 4.007812 -8.128906 3.6875 -7.515625 C 3.375 -6.910156 3.21875 -6.195312 3.21875 -5.375 L 3.21875 0 Z M 2.0625 0 "/></g></g></g><g fill="#ffffff" fill-opacity="1"><g transform="translate(81.423384, 356.401914)"><g><path d="M 6.421875 0.265625 C 5.390625 0.265625 4.476562 0.0351562 3.6875 -0.421875 C 2.894531 -0.890625 2.273438 -1.53125 1.828125 -2.34375 C 1.378906 -3.164062 1.15625 -4.109375 1.15625 -5.171875 C 1.15625 -6.234375 1.378906 -7.171875 1.828125 -7.984375 C 2.273438 -8.796875 2.894531 -9.429688 3.6875 -9.890625 C 4.488281 -10.347656 5.40625 -10.578125 6.4375 -10.578125 C 7.53125 -10.578125 8.472656 -10.328125 9.265625 -9.828125 C 10.066406 -9.328125 10.679688 -8.632812 11.109375 -7.75 C 11.535156 -6.875 11.738281 -5.851562 11.71875 -4.6875 L 2.328125 -4.6875 C 2.441406 -3.519531 2.863281 -2.585938 3.59375 -1.890625 C 4.332031 -1.191406 5.273438 -0.84375 6.421875 -0.84375 C 7.265625 -0.84375 8.007812 -1.023438 8.65625 -1.390625 C 9.300781 -1.765625 9.785156 -2.285156 10.109375 -2.953125 L 11.40625 -2.9375 C 11.007812 -1.945312 10.367188 -1.164062 9.484375 -0.59375 C 8.597656 -0.0195312 7.578125 0.265625 6.421875 0.265625 Z M 2.328125 -5.703125 L 10.578125 -5.703125 C 10.441406 -6.878906 10 -7.800781 9.25 -8.46875 C 8.507812 -9.144531 7.570312 -9.484375 6.4375 -9.484375 C 5.300781 -9.484375 4.359375 -9.140625 3.609375 -8.453125 C 2.867188 -7.765625 2.441406 -6.847656 2.328125 -5.703125 Z M 2.328125 -5.703125 "/></g></g></g><g fill="#ffffff" fill-opacity="1"><g transform="translate(94.248978, 356.401914)"><g><path d="M 2.0625 0 L 2.0625 -10.3125 L 3.03125 -10.3125 L 3.125 -8.328125 C 3.539062 -9.066406 4.09375 -9.625 4.78125 -10 C 5.46875 -10.382812 6.222656 -10.578125 7.046875 -10.578125 C 8.390625 -10.578125 9.445312 -10.132812 10.21875 -9.25 C 11 -8.375 11.390625 -7.191406 11.390625 -5.703125 L 11.390625 0 L 10.234375 0 L 10.234375 -5.609375 C 10.234375 -6.785156 9.929688 -7.71875 9.328125 -8.40625 C 8.734375 -9.101562 7.925781 -9.453125 6.90625 -9.453125 C 6.1875 -9.453125 5.546875 -9.28125 4.984375 -8.9375 C 4.429688 -8.59375 4 -8.113281 3.6875 -7.5 C 3.375 -6.882812 3.21875 -6.164062 3.21875 -5.34375 L 3.21875 0 Z M 2.0625 0 "/></g></g></g><g fill="#ffffff" fill-opacity="1"><g transform="translate(107.473504, 356.401914)"><g><path d="M 6.578125 4.25 C 5.316406 4.25 4.25 3.9375 3.375 3.3125 C 2.507812 2.695312 1.976562 1.863281 1.78125 0.8125 L 2.953125 0.8125 C 3.128906 1.53125 3.539062 2.097656 4.1875 2.515625 C 4.84375 2.941406 5.640625 3.15625 6.578125 3.15625 C 7.765625 3.15625 8.707031 2.828125 9.40625 2.171875 C 10.113281 1.523438 10.46875 0.648438 10.46875 -0.453125 L 10.46875 -2.140625 C 10.019531 -1.515625 9.4375 -1.019531 8.71875 -0.65625 C 8 -0.300781 7.203125 -0.125 6.328125 -0.125 C 5.328125 -0.125 4.4375 -0.347656 3.65625 -0.796875 C 2.882812 -1.242188 2.273438 -1.859375 1.828125 -2.640625 C 1.378906 -3.429688 1.15625 -4.332031 1.15625 -5.34375 C 1.15625 -6.351562 1.378906 -7.25 1.828125 -8.03125 C 2.273438 -8.820312 2.882812 -9.441406 3.65625 -9.890625 C 4.4375 -10.347656 5.328125 -10.578125 6.328125 -10.578125 C 7.234375 -10.578125 8.050781 -10.390625 8.78125 -10.015625 C 9.507812 -9.640625 10.101562 -9.117188 10.5625 -8.453125 L 10.65625 -10.3125 L 11.625 -10.3125 L 11.625 -0.421875 C 11.625 0.492188 11.410156 1.304688 10.984375 2.015625 C 10.566406 2.722656 9.976562 3.269531 9.21875 3.65625 C 8.46875 4.050781 7.585938 4.25 6.578125 4.25 Z M 2.3125 -5.34375 C 2.3125 -4.550781 2.488281 -3.84375 2.84375 -3.21875 C 3.195312 -2.601562 3.679688 -2.117188 4.296875 -1.765625 C 4.921875 -1.421875 5.632812 -1.25 6.4375 -1.25 C 7.25 -1.25 7.960938 -1.421875 8.578125 -1.765625 C 9.191406 -2.117188 9.675781 -2.601562 10.03125 -3.21875 C 10.382812 -3.84375 10.5625 -4.550781 10.5625 -5.34375 C 10.5625 -6.15625 10.382812 -6.867188 10.03125 -7.484375 C 9.675781 -8.097656 9.191406 -8.578125 8.578125 -8.921875 C 7.960938 -9.273438 7.25 -9.453125 6.4375 -9.453125 C 5.632812 -9.453125 4.921875 -9.273438 4.296875 -8.921875 C 3.679688 -8.578125 3.195312 -8.097656 2.84375 -7.484375 C 2.488281 -6.867188 2.3125 -6.15625 2.3125 -5.34375 Z M 2.3125 -5.34375 "/></g></g></g><g fill="#ffffff" fill-opacity="1"><g transform="translate(51.80284, 411.775253)"><g><path d="M 2.25 0 L 2.25 -13.96875 L 3.46875 -13.96875 L 3.46875 -7.6875 L 5.6875 -7.6875 C 6.78125 -7.6875 7.59375 -7.878906 8.125 -8.265625 C 8.664062 -8.648438 9.097656 -9.253906 9.421875 -10.078125 L 10.890625 -13.96875 L 12.171875 -13.96875 L 10.5 -9.59375 C 10.28125 -9.019531 10.019531 -8.535156 9.71875 -8.140625 C 9.414062 -7.742188 9.035156 -7.414062 8.578125 -7.15625 L 12.75 0 L 11.359375 0 L 7.46875 -6.71875 C 6.96875 -6.59375 6.375 -6.53125 5.6875 -6.53125 L 3.46875 -6.53125 L 3.46875 0 Z M 2.25 0 "/></g></g></g><g fill="#ffffff" fill-opacity="1"><g transform="translate(65.40634, 411.775253)"><g><path d="M 6.125 0.265625 C 4.789062 0.265625 3.738281 -0.171875 2.96875 -1.046875 C 2.207031 -1.929688 1.828125 -3.117188 1.828125 -4.609375 L 1.828125 -10.3125 L 3 -10.3125 L 3 -4.703125 C 3 -3.535156 3.289062 -2.601562 3.875 -1.90625 C 4.46875 -1.207031 5.269531 -0.859375 6.28125 -0.859375 C 7 -0.859375 7.628906 -1.03125 8.171875 -1.375 C 8.710938 -1.71875 9.132812 -2.203125 9.4375 -2.828125 C 9.738281 -3.453125 9.890625 -4.171875 9.890625 -4.984375 L 9.890625 -10.3125 L 11.046875 -10.3125 L 11.046875 0 L 10.09375 0 L 9.96875 -2.015625 C 9.570312 -1.265625 9.035156 -0.695312 8.359375 -0.3125 C 7.679688 0.0703125 6.9375 0.265625 6.125 0.265625 Z M 6.125 0.265625 "/></g></g></g><g fill="#ffffff" fill-opacity="1"><g transform="translate(78.511183, 411.775253)"><g><path d="M 6.421875 0.265625 C 5.390625 0.265625 4.476562 0.0351562 3.6875 -0.421875 C 2.894531 -0.890625 2.273438 -1.53125 1.828125 -2.34375 C 1.378906 -3.164062 1.15625 -4.109375 1.15625 -5.171875 C 1.15625 -6.234375 1.378906 -7.171875 1.828125 -7.984375 C 2.273438 -8.796875 2.894531 -9.429688 3.6875 -9.890625 C 4.488281 -10.347656 5.40625 -10.578125 6.4375 -10.578125 C 7.53125 -10.578125 8.472656 -10.328125 9.265625 -9.828125 C 10.066406 -9.328125 10.679688 -8.632812 11.109375 -7.75 C 11.535156 -6.875 11.738281 -5.851562 11.71875 -4.6875 L 2.328125 -4.6875 C 2.441406 -3.519531 2.863281 -2.585938 3.59375 -1.890625 C 4.332031 -1.191406 5.273438 -0.84375 6.421875 -0.84375 C 7.265625 -0.84375 8.007812 -1.023438 8.65625 -1.390625 C 9.300781 -1.765625 9.785156 -2.285156 10.109375 -2.953125 L 11.40625 -2.9375 C 11.007812 -1.945312 10.367188 -1.164062 9.484375 -0.59375 C 8.597656 -0.0195312 7.578125 0.265625 6.421875 0.265625 Z M 2.328125 -5.703125 L 10.578125 -5.703125 C 10.441406 -6.878906 10 -7.800781 9.25 -8.46875 C 8.507812 -9.144531 7.570312 -9.484375 6.4375 -9.484375 C 5.300781 -9.484375 4.359375 -9.140625 3.609375 -8.453125 C 2.867188 -7.765625 2.441406 -6.847656 2.328125 -5.703125 Z M 2.328125 -5.703125 "/></g></g></g><g fill="#ffffff" fill-opacity="1"><g transform="translate(91.336777, 411.775253)"><g><path d="M 2.0625 0 L 2.0625 -10.3125 L 3.21875 -10.3125 L 3.21875 0 Z M 1.578125 -13.25 C 1.578125 -13.539062 1.671875 -13.785156 1.859375 -13.984375 C 2.054688 -14.179688 2.316406 -14.28125 2.640625 -14.28125 C 2.953125 -14.28125 3.203125 -14.179688 3.390625 -13.984375 C 3.585938 -13.785156 3.6875 -13.539062 3.6875 -13.25 C 3.6875 -12.957031 3.585938 -12.707031 3.390625 -12.5 C 3.203125 -12.289062 2.953125 -12.1875 2.640625 -12.1875 C 2.316406 -12.1875 2.054688 -12.289062 1.859375 -12.5 C 1.671875 -12.707031 1.578125 -12.957031 1.578125 -13.25 Z M 1.578125 -13.25 "/></g></g></g><g fill="#ffffff" fill-opacity="1"><g transform="translate(51.80284, 439.461923)"><g><path d="M 8.359375 0.265625 C 6.992188 0.265625 5.773438 -0.0390625 4.703125 -0.65625 C 3.640625 -1.28125 2.800781 -2.140625 2.1875 -3.234375 C 1.582031 -4.328125 1.28125 -5.578125 1.28125 -6.984375 C 1.28125 -8.410156 1.582031 -9.664062 2.1875 -10.75 C 2.800781 -11.832031 3.640625 -12.679688 4.703125 -13.296875 C 5.773438 -13.910156 6.992188 -14.21875 8.359375 -14.21875 C 9.421875 -14.21875 10.40625 -14.019531 11.3125 -13.625 C 12.21875 -13.238281 12.992188 -12.691406 13.640625 -11.984375 C 14.296875 -11.273438 14.773438 -10.425781 15.078125 -9.4375 L 13.8125 -9.4375 C 13.40625 -10.539062 12.71875 -11.410156 11.75 -12.046875 C 10.78125 -12.691406 9.65625 -13.015625 8.375 -13.015625 C 7.25 -13.015625 6.242188 -12.757812 5.359375 -12.25 C 4.472656 -11.75 3.773438 -11.046875 3.265625 -10.140625 C 2.765625 -9.234375 2.515625 -8.179688 2.515625 -6.984375 C 2.515625 -5.796875 2.765625 -4.742188 3.265625 -3.828125 C 3.773438 -2.921875 4.472656 -2.210938 5.359375 -1.703125 C 6.242188 -1.203125 7.25 -0.953125 8.375 -0.953125 C 9.675781 -0.953125 10.828125 -1.285156 11.828125 -1.953125 C 12.835938 -2.617188 13.535156 -3.53125 13.921875 -4.6875 L 15.203125 -4.6875 C 14.921875 -3.6875 14.445312 -2.8125 13.78125 -2.0625 C 13.125 -1.320312 12.332031 -0.75 11.40625 -0.34375 C 10.476562 0.0625 9.460938 0.265625 8.359375 0.265625 Z M 8.359375 0.265625 "/></g></g></g><g fill="#ffffff" fill-opacity="1"><g transform="translate(68.198857, 439.461923)"><g><path d="M 2.0625 0 L 2.0625 -14.765625 L 3.21875 -14.765625 L 3.21875 -8.4375 C 3.625 -9.144531 4.164062 -9.675781 4.84375 -10.03125 C 5.519531 -10.394531 6.265625 -10.578125 7.078125 -10.578125 C 8.421875 -10.578125 9.472656 -10.144531 10.234375 -9.28125 C 11.003906 -8.414062 11.390625 -7.238281 11.390625 -5.75 L 11.390625 0 L 10.234375 0 L 10.234375 -5.640625 C 10.234375 -6.828125 9.9375 -7.757812 9.34375 -8.4375 C 8.75 -9.113281 7.941406 -9.453125 6.921875 -9.453125 C 6.203125 -9.453125 5.5625 -9.28125 5 -8.9375 C 4.445312 -8.601562 4.007812 -8.128906 3.6875 -7.515625 C 3.375 -6.910156 3.21875 -6.195312 3.21875 -5.375 L 3.21875 0 Z M 2.0625 0 "/></g></g></g><g fill="#ffffff" fill-opacity="1"><g transform="translate(81.423384, 439.461923)"><g><path d="M 2.0625 0 L 2.0625 -10.3125 L 3.21875 -10.3125 L 3.21875 0 Z M 1.578125 -13.25 C 1.578125 -13.539062 1.671875 -13.785156 1.859375 -13.984375 C 2.054688 -14.179688 2.316406 -14.28125 2.640625 -14.28125 C 2.953125 -14.28125 3.203125 -14.179688 3.390625 -13.984375 C 3.585938 -13.785156 3.6875 -13.539062 3.6875 -13.25 C 3.6875 -12.957031 3.585938 -12.707031 3.390625 -12.5 C 3.203125 -12.289062 2.953125 -12.1875 2.640625 -12.1875 C 2.316406 -12.1875 2.054688 -12.289062 1.859375 -12.5 C 1.671875 -12.707031 1.578125 -12.957031 1.578125 -13.25 Z M 1.578125 -13.25 "/></g></g></g><g fill="#ffffff" fill-opacity="1"><g transform="translate(86.689262, 439.461923)"><g><path d="M 6.421875 0.265625 C 5.390625 0.265625 4.476562 0.0351562 3.6875 -0.421875 C 2.894531 -0.890625 2.273438 -1.53125 1.828125 -2.34375 C 1.378906 -3.164062 1.15625 -4.109375 1.15625 -5.171875 C 1.15625 -6.234375 1.378906 -7.171875 1.828125 -7.984375 C 2.273438 -8.796875 2.894531 -9.429688 3.6875 -9.890625 C 4.488281 -10.347656 5.40625 -10.578125 6.4375 -10.578125 C 7.53125 -10.578125 8.472656 -10.328125 9.265625 -9.828125 C 10.066406 -9.328125 10.679688 -8.632812 11.109375 -7.75 C 11.535156 -6.875 11.738281 -5.851562 11.71875 -4.6875 L 2.328125 -4.6875 C 2.441406 -3.519531 2.863281 -2.585938 3.59375 -1.890625 C 4.332031 -1.191406 5.273438 -0.84375 6.421875 -0.84375 C 7.265625 -0.84375 8.007812 -1.023438 8.65625 -1.390625 C 9.300781 -1.765625 9.785156 -2.285156 10.109375 -2.953125 L 11.40625 -2.9375 C 11.007812 -1.945312 10.367188 -1.164062 9.484375 -0.59375 C 8.597656 -0.0195312 7.578125 0.265625 6.421875 0.265625 Z M 2.328125 -5.703125 L 10.578125 -5.703125 C 10.441406 -6.878906 10 -7.800781 9.25 -8.46875 C 8.507812 -9.144531 7.570312 -9.484375 6.4375 -9.484375 C 5.300781 -9.484375 4.359375 -9.140625 3.609375 -8.453125 C 2.867188 -7.765625 2.441406 -6.847656 2.328125 -5.703125 Z M 2.328125 -5.703125 "/></g></g></g><g fill="#ffffff" fill-opacity="1"><g transform="translate(99.514856, 439.461923)"><g><path d="M 2.0625 0 L 2.0625 -10.3125 L 3.03125 -10.3125 L 3.125 -8.328125 C 3.539062 -9.066406 4.09375 -9.625 4.78125 -10 C 5.46875 -10.382812 6.222656 -10.578125 7.046875 -10.578125 C 8.390625 -10.578125 9.445312 -10.132812 10.21875 -9.25 C 11 -8.375 11.390625 -7.191406 11.390625 -5.703125 L 11.390625 0 L 10.234375 0 L 10.234375 -5.609375 C 10.234375 -6.785156 9.929688 -7.71875 9.328125 -8.40625 C 8.734375 -9.101562 7.925781 -9.453125 6.90625 -9.453125 C 6.1875 -9.453125 5.546875 -9.28125 4.984375 -8.9375 C 4.429688 -8.59375 4 -8.113281 3.6875 -7.5 C 3.375 -6.882812 3.21875 -6.164062 3.21875 -5.34375 L 3.21875 0 Z M 2.0625 0 "/></g></g></g><g clip-path="url(#efca2197da)"><g transform="matrix(1, 0, 0, 1, 344, 196)"><g clip-path="url(#b4f9681b51)"><g clip-path="url(#d2d644d5f7)"><path fill="#000000" d="M 0.726562 0.871094 L 256.941406 0.871094 L 256.941406 172.125 L 0.726562 172.125 Z M 0.726562 0.871094 " fill-opacity="1" fill-rule="nonzero"/></g></g></g></g><g clip-path="url(#ff28e1791a)"><g clip-path="url(#0b2d754bff)"><g clip-path="url(#89e901706f)"><path fill="#ffd9f9" d="M 449.023438 282.601562 L 437.28125 272.257812 C 436.839844 271.867188 436.152344 271.953125 435.816406 272.441406 L 426.945312 285.328125 C 426.460938 286.03125 427.035156 286.972656 427.878906 286.867188 L 448.492188 284.324219 C 449.335938 284.21875 449.660156 283.167969 449.023438 282.601562 Z M 449.023438 282.601562 " fill-opacity="1" fill-rule="nonzero"/></g></g></g><g clip-path="url(#0daef92c8a)"><g clip-path="url(#03580ce110)"><g clip-path="url(#8fb303eac5)"><path fill="#ffd9f9" d="M 469.410156 244.578125 C 460.667969 245.097656 452.960938 248.652344 447.113281 254.085938 L 450.007812 257.054688 C 454.597656 252.816406 460.46875 249.871094 467.132812 248.953125 C 485.125 246.476562 501.667969 259.628906 503.050781 278.023438 C 504.234375 293.785156 493.265625 308.253906 477.773438 311.378906 C 459.691406 315.023438 442.554688 302.652344 440.074219 284.660156 L 435.980469 285.222656 C 438.679688 304.816406 456.75 318.511719 476.34375 315.8125 C 496.679688 313.011719 510.660156 293.652344 506.558594 273.21875 C 503.074219 255.894531 487.050781 243.53125 469.410156 244.578125 Z M 469.410156 244.578125 " fill-opacity="1" fill-rule="nonzero"/></g></g></g><g clip-path="url(#7d0be74dcf)"><g clip-path="url(#0989c833ef)"><g clip-path="url(#2c7dab2c32)"><path fill="#ffd9f9" d="M 447.070312 257.015625 C 447.871094 257.835938 449.179688 257.859375 450 257.0625 L 447.113281 254.085938 C 446.292969 254.878906 446.273438 256.191406 447.070312 257.015625 Z M 447.070312 257.015625 " fill-opacity="1" fill-rule="nonzero"/></g></g></g><path stroke-linecap="butt" transform="matrix(0.748288, 0, 0, 0.748288, 51.80284, 338.19354)" fill="none" stroke-linejoin="miter" d="M 0.00246878 0.498293 L 23.164704 0.498293 " stroke="#ffffff" stroke-width="1" stroke-opacity="1" stroke-miterlimit="4"/><path stroke-linecap="butt" transform="matrix(0.748288, 0, 0, 0.748288, 51.80284, 443.938593)" fill="none" stroke-linejoin="miter" d="M 0.00246878 0.499683 L 23.164704 0.499683 " stroke="#ffffff" stroke-width="1" stroke-opacity="1" stroke-miterlimit="4"/></g></g></g></svg>