<?xml version="1.0" encoding="utf-8"?>
<!-- Generator: Adobe Illustrator 27.0.0, SVG Export Plug-In . SVG Version: 6.00 Build 0)  -->
<svg version="1.1" id="圖層_1" xmlns="http://www.w3.org/2000/svg" xmlns:xlink="http://www.w3.org/1999/xlink" x="0px" y="0px"
	 viewBox="0 0 595.28 841.89" style="enable-background:new 0 0 595.28 841.89;" xml:space="preserve">
<style type="text/css">
	.st0{fill:#575757;}
</style>
<g>
	<path class="st0" d="M494.22,492.4c-5.25-8.5-12.77-14.53-21.36-19.35c-3.83-2.15-7.86-3.88-12.01-5.34
		c-1.61-0.57-2.7-1.39-2.58-3.31c0.06-0.95-0.35-1.86-0.85-2.67c-1.32-2.13-3.3-3.15-5.76-3.28c-3.84-0.21-7.71,0.28-11.55-0.29
		c-0.77-0.11-1.46-0.35-1.67-1.1c-0.46-1.64-1.11-3.3-1.12-4.96c-0.03-6.28-0.41-12.52-1.43-18.72
		c-1.7-10.33-5.18-20.02-10.33-29.12c-7.93-14.01-19.1-25.07-31.77-34.78c-12.94-9.92-27.01-17.98-41.52-25.3
		c-10.58-5.34-21.31-10.39-32.15-15.19c-7.18-3.18-14.81-4.21-22.59-3.51c-7.87,0.71-15.23,3.29-22.26,6.86
		c-16.33,8.29-32.62,16.66-48.57,25.68c-9.99,5.65-19.4,12.11-27.73,20.02c-7.63,7.25-14.32,15.3-19.81,24.31
		c-9.36,15.37-14.4,31.89-13.67,50.05c0.32,8,1.83,15.71,4.54,23.21c5,13.9,13.47,25.34,24.87,34.64
		c9.24,7.54,19.74,12.81,31.04,16.54c9.34,3.09,18.9,5.31,28.63,6.73c7.08,1.03,14.18,1.81,21.33,2.24
		c4.31,0.26,8.62,0.59,12.94,0.72c6.09,0.18,12.14,0.72,18.26,0.42c9.81-0.48,19.62-0.92,29.4-1.87c5.12-0.5,10.21-1.17,15.28-2
		c6.77-1.11,13.47-2.58,20.07-4.46c0.73-0.21,1.25-0.19,1.92,0.33c5.43,4.24,11.59,7.14,18.06,9.36
		c12.21,4.19,24.86,5.67,38.07,6.05c5.06-0.3,10.49-0.53,15.91-1.06c9.06-0.89,17.88-2.73,26.36-6.07
		c7.85-3.1,15.13-7.05,20.65-13.69c3.82-4.59,5.98-9.86,5.96-15.78C498.76,502.23,497.12,497.09,494.22,492.4z M419.51,471.58
		c-0.85,2.24-1.04,4.58-1.11,6.96c-0.03,0.93-0.19,1.88-0.44,2.79c-0.26,0.95-0.8,1.77-1.98,1.68c-1.17-0.08-1.54-0.98-1.78-1.92
		c-0.1-0.39-0.02-0.82-0.02-1.24c0.43-3,1.18-5.9,2.96-8.43c0.31-0.45,0.73-0.77,1.22-1c0.45-0.21,0.81-0.07,1.14,0.2
		C419.88,470.93,419.63,471.26,419.51,471.58z M423.81,453.24c-0.52,0.82-0.72,1.72-0.81,2.68c-0.13,1.42-0.89,2.14-2.43,2.28
		c-2.37,0.21-4.73,0.21-7.45,0.23c-1.99,0.21-4.38-0.44-6.64,0.79c-2.28,1.23-3.68,2.98-3.71,5.6c-0.02,2.12-1.62,2.62-3.11,3.14
		c-3.7,1.29-7.29,2.84-10.72,4.73c-8.46,4.65-16.04,10.34-21.34,18.6c-3.78,5.89-5.84,12.3-5.08,19.38
		c0.46,4.27,2.18,8.09,4.78,11.49c0.8,1.04,1.05,1.5-0.6,1.91c-8.16,2-16.39,3.55-24.74,4.57c-8.93,1.09-17.89,1.71-26.87,2.2
		c-3.66,0.2-7.34,0.42-10.99,0.46c-7.21,0.09-14.43-0.39-21.64-0.85c-4.96-0.31-9.91-0.66-14.86-1.12
		c-10.91-1.02-21.68-2.78-32.26-5.67c-7.56-2.07-14.93-4.65-21.92-8.21c-7.92-4.03-15.16-9.08-21.37-15.45
		c-10.83-11.13-17.64-24.32-20.15-39.72c-2.38-14.62-0.17-28.61,5.47-42.15c4.4-10.54,10.76-19.84,18.29-28.4
		c9.9-11.26,21.77-19.95,34.79-27.26c15.93-8.94,32.13-17.35,48.45-25.53c7.78-3.9,15.98-6.21,24.8-5.85
		c5.82,0.24,11.32,1.74,16.57,4.21c10.03,4.71,20.14,9.27,30.02,14.3c13.7,6.97,27.02,14.56,39.28,23.89
		c10.76,8.19,20.54,17.34,27.98,28.77c6.89,10.58,11.23,22.09,13.03,34.59c0.52,3.64,0.42,7.32,0.97,10.94
		c0.28,1.86-0.9,2-2.19,2.12C426.99,450.12,425.11,451.19,423.81,453.24z M432.45,473.78c-1.55,4.81-2.25,9.66-1.02,14.65
		c0.22,0.89-0.13,1.41-0.9,1.64c-0.97,0.28-1.5-0.37-1.65-1.18c-0.34-1.91-0.62-3.84-0.82-5.78c-0.11-1.11-0.02-2.25-0.02-3.38
		c-0.09-4.51,0.51-8.96,1.45-13.35c0.29-1.33,0.86-2.57,2.53-2.44c1.49,0.11,2.16,1.17,2.09,3.16
		C434.04,469.43,433.15,471.59,432.45,473.78z M445.86,483.9c-1.49,0.76-2.96-0.01-4-2.14c-1.33-2.71-1.64-5.63-1.73-8.62
		c0.23-1.1-0.58-2.91,1.09-3.12c1.63-0.2,1.15,1.67,1.48,2.68c0.8,2.49,2.09,4.75,3.33,7.03
		C447.2,481.91,447.19,483.22,445.86,483.9z"/>
	<path class="st0" d="M242.08,342.62c-8.38-8.9-18.28-15.56-29.59-20.15c-1.81-0.74-2.87-2.01-2.77-4.1
		c0.08-1.77-0.48-3.39-1.41-4.87c-1.91-3.02-4.91-3.97-8.23-4.07c-3.68-0.11-7.36-0.04-11.04-0.03c-1.59,0.01-2.6-0.67-2.9-2.27
		c-0.17-0.93-0.24-1.88-0.48-2.78c-1.2-4.42-5.11-7.13-9.63-6.7c-4.36,0.41-7.68,3.99-7.97,8.61c-0.14,2.18-1.06,3.1-3.23,3.14
		c-1.84,0.03-3.68,0.01-5.52,0.01c-1.9,0-3.8-0.04-5.7,0.01c-5.3,0.15-9.28,3.8-9.36,8.75c-0.04,2.27-0.97,3.62-3.05,4.45
		c-8.99,3.62-17.05,8.71-24.28,15.17c-11.03,9.84-18.45,21.61-20.19,36.58c-0.85,7.37,0.59,14.26,3.92,20.77
		c5.02,9.81,13.06,16.55,22.66,21.59c12.39,6.51,25.69,9.77,39.54,11.23c1.94,0.21,2.36-0.37,2.76-2.02
		c1.33-5.42,3.28-10.64,5.73-15.64c9.18-18.72,22.71-33.69,39.73-45.57c9.59-6.7,20.02-11.99,30.26-17.58
		C244.7,345.32,244.72,345.41,242.08,342.62z M161.13,330.6c-1.72,4.02-1.27,8.35-1.96,12.52c-0.02,0.12-0.01,0.24-0.03,0.35
		c-0.35,2.28-1.49,3.62-3.04,3.56c-1.51-0.05-2.65-1.8-2.63-4.6c0.58-3.88,1.69-8.12,4.42-11.78c0.47-0.63,1.02-1.21,1.81-1.32
		C160.58,329.21,161.64,329.39,161.13,330.6z M180.39,329.89c-1.24,4.06-2.8,8.04-3.26,12.31c-0.43,3.99-0.89,7.99,0.33,11.94
		c0.34,1.11,0.61,2.3-1.03,2.66c-1.51,0.33-2.11-0.53-2.41-1.87c-0.93-4.17-1.22-8.4-1.38-12.89c0.23-5.97,1.04-12.1,2.22-18.19
		c0.28-1.46,0.79-2.93,2.49-3.38c2.23-0.58,4.17,1.04,4.21,3.54C181.59,326.04,180.97,327.97,180.39,329.89z M197.67,348.3
		c-1.58,0.78-3.22,0.34-4.33-1.21c-1.9-2.66-2.84-5.7-3.18-8.9c-0.18-1.64-0.63-3.26-0.43-4.94c0.07-1.06,0.05-2.13,0.23-3.17
		c0.14-0.77,0.62-1.44,1.55-1.46c1.02-0.02,1.3,0.78,1.41,1.53c0.64,4.44,2.79,8.24,4.96,12.04c0.38,0.67,0.8,1.33,1.06,2.04
		C199.66,346.23,199.22,347.54,197.67,348.3z"/>
	<path class="st0" d="M290.56,377.96c0.25-9.16,1.38-18.22,3.21-27.21c0.13-0.63,0.32-1.26,0.58-1.86c1.08-2.51,2.58-3.31,5.23-2.85
		c2.25,0.39,3.71,2.21,3.86,4.64c0.22,3.69-0.94,7.12-1.98,10.57c-1.59,5.25-3.63,10.38-4.24,15.89c-0.7,6.3-1.4,12.62,0.54,18.81
		c0.69,2.2-0.45,3.76-3.08,3.47c-1.59-0.17-2.01-1.46-2.23-2.64c-0.6-3.25-1.17-6.51-1.44-9.8
		C290.73,384,290.28,380.99,290.56,377.96z"/>
	<path class="st0" d="M315.54,364.11c0.1-1.35,0.15-2.77,0.33-4.17c0.17-1.33,1.18-1.93,2.36-2c1.11-0.07,1.73,0.77,1.86,1.79
		c0.91,7.12,4.62,13.08,7.96,19.19c0.37,0.67,0.72,1.36,1,2.07c1.05,2.64,0.42,4.71-1.77,5.94c-2.05,1.16-4.53,0.62-6.18-1.35
		c-1.65-1.99-2.7-4.31-3.48-6.74c-1.09-3.38-1.73-6.86-1.81-10.42C315.79,366.99,315.64,365.58,315.54,364.11z"/>
	<path class="st0" d="M262.43,379.07c0.52-6.55,2.47-12.61,6.24-18.03c0.37-0.53,0.87-0.97,1.36-1.4c0.99-0.86,2.11-1.14,3.25-0.33
		c1.11,0.79,0.37,1.76,0.02,2.55c-1.52,3.44-1.74,7.1-1.94,10.75c-0.14,2.54-0.35,5.07-0.78,7.57c-0.12,0.69-0.35,1.38-0.63,2.03
		c-0.85,2.01-2.38,3.06-4.06,2.85c-1.64-0.2-3.28-2.09-3.47-4.04C262.38,380.38,262.43,379.73,262.43,379.07z"/>
	<g>
		<path class="st0" d="M330.42,471.28c0.75-0.06,1.47-0.29,1.59-1.14c0.1-0.75-0.46-1.12-1.05-1.48c-1.09-0.67-2.27-0.59-3.45-0.59
			c-9.26,0-18.51-0.03-27.77,0.01c-1.28,0.01-1.85-0.28-1.74-1.67c0.11-1.41,0.06-2.85,0.01-4.27c-0.03-0.94,0.36-1.24,1.26-1.23
			c4.2,0.03,8.39,0.06,12.59,0.61c3.14,0.41,6.36,0.93,9.45-0.42c1.13-0.5,2.64-0.75,2.84-2.21c0.11-0.79-2.63-1.87-4.01-1.75
			c-6.99,0.6-13.99,0.11-20.98,0.28c-0.85,0.02-1.18-0.33-1.12-1.16c0.04-0.53,0.07-1.08-0.01-1.6c-0.25-1.61,0.43-1.98,1.97-1.96
			c5.99,0.08,11.97,0.13,17.96-0.25c3.56-0.22,5.81-2.12,6.04-5.5c0.23-3.36,0.26-6.74,0.41-10.11c0.09-1.98-0.85-3.37-2.37-4.49
			c-4.27-3.12-9.33-3.91-14.32-4.02c-8.82-0.19-17.67-0.58-26.49,0.27c-3.55,0.34-7.02,1.15-10.16,2.95
			c-2.35,1.34-3.98,3.15-3.65,6.14c0.32,2.94,0.27,5.91,0.41,8.86c0.19,3.75,2.43,5.63,6.22,5.91c5.57,0.42,11.14,0.17,16.71,0.27
			c3.42,0.06,2.94-0.65,3.04,3.18c0.03,1.17-0.35,1.54-1.52,1.52c-3.38-0.06-6.76-0.01-10.15-0.03c-3.26-0.02-6.53,0.06-9.78-0.14
			c-1.45-0.09-2.67,0.2-3.88,0.85c-1.19,0.64-1,1.28,0,1.91c2.38,1.51,4.97,2.13,7.78,1.84c5.42-0.55,10.83-1.15,16.3-0.96
			c0.9,0.03,1.3,0.3,1.26,1.24c-0.05,1.36-0.11,2.74,0.02,4.09c0.14,1.55-0.51,1.86-1.93,1.85c-9.43-0.05-18.87-0.01-28.3-0.02
			c-1.04,0-1.99,0.16-2.89,0.69c-0.58,0.34-0.86,0.78-0.78,1.45c0.09,0.74,0.65,0.97,1.25,1.05c0.58,0.08,1.18,0.06,1.78,0.06
			c10.98,0,21.96,0,32.93,0c10.98,0,21.96,0,32.93,0C329.36,471.3,329.89,471.32,330.42,471.28z M299.64,431.08
			c4.2,0.11,8.41-0.1,12.61,0.3c1.47,0.14,2.32,0.97,2.52,2.3c0.66,4.24,0.31,8.51,0.27,12.77c-0.02,1.87-1.08,2.74-3.02,2.76
			c-4.21,0.04-8.42-0.02-12.64,0.04c-1.13,0.02-1.42-0.42-1.39-1.46c0.06-2.55,0.02-5.1,0.02-7.65c0-2.43,0.06-4.86-0.02-7.29
			C297.95,431.6,298.22,431.05,299.64,431.08z M294.07,440.37c0,2.49-0.04,4.97,0.02,7.46c0.03,1.09-0.36,1.43-1.43,1.42
			c-4.21-0.05-8.41,0.01-12.62-0.04c-2.2-0.02-2.94-0.89-3.07-3.01c-0.24-3.84-0.15-7.66,0.03-11.5c0.11-2.27,0.97-3.09,3.19-3.34
			c4.08-0.47,8.16-0.13,12.24-0.27c1.22-0.04,1.7,0.39,1.66,1.64C294.03,435.28,294.07,437.83,294.07,440.37z"/>
		<path class="st0" d="M331.25,484.11c-3.29-3.77-7.41-6.4-12-8.33c-0.88-0.37-1.66-0.25-2.3,0.36c-0.75,0.72-0.16,1.47,0.23,2.08
			c2.18,3.45,4.38,6.89,6.64,10.29c0.73,1.1,1.9,1.56,3.22,1.64c1.48-0.06,2.7-0.77,3.82-1.68
			C332.86,486.86,332.99,486.1,331.25,484.11z"/>
		<path class="st0" d="M271.79,475.61c-0.75,0.13-1.44,0.45-2.05,0.97c-2.89,2.44-5.79,4.87-8.74,7.23
			c-1.23,0.98-2.25,1.99-1.76,3.7c0.42,1.44,2.32,2.61,4.08,2.63c1.26,0.01,2.25-0.57,3.18-1.36c3.5-2.97,5.46-6.94,7.1-11.09
			C274.03,476.59,272.99,475.41,271.79,475.61z"/>
		<path class="st0" d="M287.96,477.04c-0.8,0-1.45,0.52-1.93,1.14c-2.16,2.77-3.33,5.94-3.67,9.43c0,0.18-0.01,0.36,0,0.53
			c0.06,1.81,1.01,2.99,2.49,3.1c1.81,0.14,2.39-0.41,2.94-2.53c0.23-0.88,0.27-1.75,0.27-2.63c0-2.6,0.08-5.18,1.18-7.63
			C289.84,477.16,288.78,477.05,287.96,477.04z"/>
		<path class="st0" d="M303.8,477.19c-0.6-0.25-1.14-0.26-1.66,0.15c-0.6,0.47-0.21,0.95-0.03,1.43c0.67,1.73,0.99,3.52,0.92,5.37
			c-0.06,1.66,0.03,3.32,0.43,4.93c0.26,1.05,0.75,1.99,2.04,2.17c1.35,0.19,2.29-0.37,2.98-1.46c0.41-0.65,0.23-1.38,0.32-2.31
			c-0.18-3.11-1.29-6.11-3.24-8.81C305.1,478.04,304.54,477.51,303.8,477.19z"/>
		<path class="st0" d="M287.58,437.84c-1.59,0.18-2.86,1.07-4.08,1.99c-1.3,0.99-2.27,2.24-2.23,4.18c-0.1,0.95,0.33,1.91,1.37,2.25
			c0.97,0.32,1.6-0.52,2.16-1.21c1.26-1.55,2.12-3.42,3.8-4.61c0.5-0.36,1.27-0.54,0.93-1.43
			C289.19,438.11,288.52,437.73,287.58,437.84z"/>
		<path class="st0" d="M302.49,446.21c1.06,0.55,1.61-0.38,2.21-0.99c0.37-0.38,0.65-0.84,0.98-1.26c0.98-1.25,1.68-2.72,3.12-3.59
			c0.46-0.28,1.17-0.5,0.86-1.32c-0.28-0.74-0.8-1.14-1.59-1.21c-2.61-0.26-6.78,3.4-6.81,6.4
			C301.26,444.82,301.56,445.74,302.49,446.21z"/>
	</g>
</g>
</svg>
