<?xml version="1.0" encoding="utf-8"?>
<!-- Generator: Adobe Illustrator 27.0.0, SVG Export Plug-In . SVG Version: 6.00 Build 0)  -->
<svg version="1.1" id="圖層_1" xmlns="http://www.w3.org/2000/svg" xmlns:xlink="http://www.w3.org/1999/xlink" x="0px" y="0px"
	 viewBox="284 213 200 200" style="enable-background:new 0 0 792 612;" xml:space="preserve">
<style type="text/css">
	.st0{fill:#575757;}
	.st1{font-family:'AdobeMingStd-Light-B5pc-H';}
	.st2{font-size:12px;}
</style>
<g>
	<g>
		<g>
			<path class="st0" d="M366.74,295.43c-0.7-0.08-1.37-0.14-2.04-0.23c-1.18-0.15-2.28-0.61-3.44-0.85
				c-0.69-0.15-1.39-0.24-2.1-0.23c-2.03,0.03-3.55,1.47-3.69,3.5c-0.01,0.07-0.01,0.14-0.01,0.22c0.01,0.14-0.05,0.21-0.2,0.21
				c-0.18,0-0.21-0.09-0.2-0.25c0.12-2.55,2.03-4.31,4.73-4.06c1.13,0.1,2.21,0.41,3.29,0.72c1.22,0.35,2.48,0.56,3.75,0.55
				c0.3,0,0.43,0.06,0.45,0.39c0.08,1.3,0.2,2.59,0.3,3.88c0.15,2.01,0.3,4.03,0.46,6.04c0.01,0.11,0.01,0.23,0.12,0.35
				c0.2-0.27,0.39-0.54,0.58-0.8c1.94-2.68,3.91-5.33,6.13-7.79c0.74-0.82,1.53-1.58,2.48-2.15c0.34-0.2,0.69-0.35,1.08-0.42
				c0.11-0.02,0.24-0.05,0.25,0.13c0.01,0.13-0.01,0.23-0.16,0.25c-0.11,0.02-0.23,0.04-0.34,0.07c-0.65,0.23-1.11,0.59-1.32,1.33
				c-0.79,2.73-1.66,5.43-2.47,8.15c-0.29,0.96-0.4,1.96-0.14,2.95c0.23,0.88,0.26,0.87,1.12,0.57c0.17-0.06,0.33-0.18,0.48-0.29
				c0.11-0.08,0.19-0.22,0.34-0.03c0.13,0.17,0.04,0.26-0.09,0.35c-1.24,0.97-3.76,0.86-4.28-1.39c-0.26-1.13-0.05-2.24,0.23-3.34
				c0.25-0.99,0.57-1.96,0.86-2.95c0.02-0.08,0.06-0.16-0.01-0.3c-0.56,0.73-1.12,1.42-1.65,2.14c-1.59,2.15-3.16,4.31-4.74,6.45
				c-0.1,0.13-0.13,0.38-0.4,0.3c-0.25-0.07-0.22-0.29-0.23-0.46c-0.13-1.48-0.24-2.96-0.36-4.44c-0.12-1.55-0.24-3.11-0.37-4.77
				c-0.16,0.28-0.29,0.48-0.4,0.69c-1.17,2.1-2.24,4.27-3.64,6.24c-0.9,1.27-1.94,2.37-3.54,2.74c-1.58,0.36-3.13,0.39-4.54-0.55
				c-1.48-0.99-2.1-2.4-1.99-4.16c0.01-0.13-0.01-0.27,0.2-0.25c0.2,0.02,0.2,0.13,0.19,0.3c-0.14,2.61,1.8,4.54,4.42,4.48
				c2.06-0.05,3.6-0.93,4.79-2.58c1.19-1.66,2.14-3.46,3.13-5.24c0.95-1.72,1.89-3.44,2.84-5.16
				C366.64,295.65,366.68,295.56,366.74,295.43z"/>
			<path class="st0" d="M392.43,300.52c1.24-2.63,2.57-5.2,4.41-7.47c0.72-0.89,1.51-1.72,2.53-2.26c0.84-0.45,1.73-0.64,2.67-0.32
				c0.65,0.22,1.08,0.92,1.02,1.6c-0.01,0.14-0.07,0.16-0.18,0.17c-0.19,0.02-0.26-0.06-0.31-0.26c-0.2-0.91-0.5-1.14-1.43-1.17
				c-0.56-0.02-1.08,0.13-1.57,0.41c-1.09,0.62-1.94,1.5-2.69,2.48c-1.79,2.32-3.16,4.89-4.33,7.57c-1.06,2.43-1.83,4.98-2.69,7.48
				c-0.12,0.35-0.27,0.48-0.63,0.46c-0.59-0.03-1.18-0.03-1.78,0c-0.39,0.02-0.38-0.11-0.25-0.41c0.92-2.21,1.79-4.44,2.43-6.75
				c0.43-1.56,0.77-3.14,0.79-4.77c0.01-1.15-0.19-2.24-1.3-2.88c-0.83-0.48-1.72-0.35-2.56-0.05c-2.04,0.73-3.05,2.27-3.28,4.37
				c-0.08,0.72-0.06,1.44,0.15,2.15c0.4,1.35,1.34,2.14,2.63,2.59c0.1,0.03,0.34-0.06,0.26,0.22c-0.07,0.24-0.23,0.17-0.38,0.12
				c-1.6-0.55-2.72-1.56-3.02-3.29c-0.24-1.37-0.08-2.71,0.55-3.96c1.02-2.03,3.09-3.11,5.38-2.81c0.44,0.06,0.89,0.12,1.31,0.26
				c1.39,0.48,2.09,1.5,2.3,2.92c0.17,1.16,0.05,2.3-0.1,3.45C392.31,300.51,392.32,300.52,392.43,300.52z"/>
			<path class="st0" d="M411.07,301.3c0.64,0,1.21,0,1.79,0c0.11,0,0.29-0.07,0.3,0.14c0.01,0.22-0.15,0.2-0.3,0.2
				c-0.51,0-1.01,0.01-1.52-0.01c-0.27-0.01-0.4,0.06-0.48,0.35c-0.4,1.35-0.64,2.75-1.17,4.07c-0.32,0.82-0.71,1.61-1.23,2.32
				c-1.24,1.67-2.98,2.18-4.94,1.96c-2.59-0.29-4.26-2.27-4.23-4.88c0-0.17-0.13-0.44,0.24-0.43c0.34,0.01,0.2,0.27,0.2,0.42
				c0.01,1.42,0.51,2.62,1.58,3.56c0.9,0.78,1.98,1.05,3.14,0.94c0.83-0.08,1.41-0.61,1.87-1.28c0.4-0.59,0.65-1.25,0.89-1.92
				c0.59-1.65,0.91-3.36,1.34-5.1c-0.64,0-1.24,0-1.85,0c-0.12,0-0.28,0.05-0.3-0.15c-0.01-0.23,0.17-0.19,0.3-0.19
				c0.51,0,1.01-0.02,1.52,0.01c0.32,0.02,0.45-0.09,0.53-0.4c0.22-0.88,0.5-1.75,0.83-2.59c0.53-1.33,0.8-1.69,1.9-2.51
				c-0.85-0.29-1.56-0.82-2.35-1.19c-1.29-0.6-2.62-0.74-3.93-0.15c-1.33,0.6-2.03,1.7-2.18,3.15c-0.01,0.1-0.02,0.2-0.02,0.3
				c0,0.17-0.05,0.28-0.25,0.26c-0.2-0.02-0.16-0.17-0.16-0.29c-0.09-1.93,1.51-3.83,3.45-4.13c1.32-0.2,2.56,0.01,3.7,0.7
				c1.41,0.85,2.91,1.38,4.58,1.39c0.18,0,0.27,0.04,0.26,0.24c-0.01,0.2-0.13,0.19-0.26,0.18c-0.16,0-0.32,0.02-0.47-0.02
				c-0.3-0.07-0.52,0-0.69,0.27C412.19,297.99,411.62,299.62,411.07,301.3z"/>
			<path class="st0" d="M377.98,307.79c0-0.84,0.61-1.47,1.43-1.47c0.82,0,1.45,0.64,1.45,1.46c-0.01,0.78-0.65,1.42-1.44,1.42
				C378.63,309.2,377.98,308.56,377.98,307.79z"/>
			<path class="st0" d="M398.36,307.75c0,0.81-0.64,1.46-1.46,1.45c-0.77-0.01-1.42-0.64-1.42-1.39c0-0.87,0.62-1.5,1.45-1.49
				C397.74,306.32,398.36,306.94,398.36,307.75z"/>
		</g>
		<g>
			<path class="st0" d="M408.92,290.78c0.36-0.99-0.28-2.13-2.13-2.72c0.02,0.66,0.19,1.28,0.63,1.83
				C407.78,290.35,408.37,290.69,408.92,290.78z"/>
			<g>
				<path class="st0" d="M409.51,288.4c-0.03-0.09-0.06-0.18-0.09-0.27c-0.31-0.82-1.05-1.27-2.06-1.48
					c-0.37-0.07-0.75-0.1-1.16-0.15c0.05,0.09,0.08,0.15,0.11,0.2c0.32,0.52,0.74,0.99,1.34,1.33c0.56,0.32,1.17,0.47,1.86,0.4
					C409.51,288.41,409.51,288.41,409.51,288.4z"/>
				<path class="st0" d="M405.88,286.75c-0.99,0.98-1.32,2.31-0.47,3.16C406.5,289.34,406.83,288.07,405.88,286.75z"/>
				<g>
					<g>
						<g>
							<path class="st0" d="M386.54,274.09c-0.81-1.43-2.62-2.1-4.15-1.54c-1.29,0.47-2.24,1.8-2.23,3.11
								c0.01,0.55,0.33,0.92,0.82,0.93c0.47,0.01,0.81-0.3,0.87-0.83c0.01-0.09,0.01-0.18,0.02-0.27c0.18-1.17,1.45-1.81,2.48-1.27
								c0.67,0.35,1.05,1.11,0.91,1.84c-0.15,0.75-0.76,1.3-1.56,1.4c-0.75,0.09-0.97,0.32-0.97,1.05c0,0.38-0.02,0.76,0,1.13h1.69
								c0.01-0.11,0.02-0.21,0.03-0.31c0-0.15,0.29-0.32,0.47-0.45c0.26-0.18,0.57-0.3,0.82-0.5
								C387.01,277.36,387.35,275.52,386.54,274.09z"/>
						</g>
					</g>
					<g>
						<path class="st0" d="M372.15,278.13c0.22,0.03,0.45,0.06,0.66,0.1c0.99,0.2,1.72,0.68,2.32,1.31
							c0.22,0.23,0.41,0.49,0.64,0.76c-1.05,0.05-2.02-0.04-2.95-0.35c-0.73-0.24-1.34-0.61-1.75-1.16c-0.11-0.15-0.2-0.3-0.32-0.49
							c0.35-0.06,0.66-0.11,0.97-0.17C371.86,278.13,372,278.13,372.15,278.13z"/>
						<path class="st0" d="M357.62,288.52c0.03-0.09,0.06-0.18,0.09-0.27c0.31-0.82,1.05-1.27,2.06-1.48
							c0.37-0.07,0.75-0.1,1.16-0.15c-0.05,0.09-0.08,0.15-0.11,0.2c-0.32,0.52-0.74,0.99-1.34,1.33c-0.56,0.32-1.17,0.47-1.86,0.4
							C357.62,288.54,357.62,288.53,357.62,288.52z"/>
						<path class="st0" d="M379.22,278.63c0.62,0.07,1.16,0.26,1.66,0.55c0.89,0.52,1.37,1.24,1.61,2.08
							c0.13,0.46,0.18,0.93,0.16,1.46c-0.46-0.23-0.9-0.43-1.3-0.66c-0.82-0.47-1.49-1.05-1.88-1.8
							C379.19,279.73,379.11,279.19,379.22,278.63z"/>
						<path class="st0" d="M382.36,283c-1.2,0.8-2.5,1.4-4.14,1.39c-0.68,0-1.31-0.16-1.91-0.44c0.31-0.4,0.7-0.72,1.19-0.97
							c0.98-0.49,2.05-0.59,3.16-0.42c0.58,0.09,1.13,0.24,1.7,0.36C382.37,282.96,382.37,282.98,382.36,283z"/>
						<path class="st0" d="M374.87,278.2c1.01-0.09,1.9,0.11,2.69,0.58c0.81,0.49,1.29,1.17,1.63,1.91
							c0.07,0.15,0.12,0.29,0.19,0.46c-0.1-0.01-0.19-0.02-0.27-0.03c-1.13-0.18-2.18-0.51-3.05-1.13c-0.62-0.45-1.02-1-1.17-1.65
							C374.88,278.3,374.87,278.26,374.87,278.2z"/>
						<path class="st0" d="M373.9,283.35c0.3-0.67,0.82-1.17,1.56-1.52c0.57-0.27,1.19-0.41,1.84-0.45c0.65-0.05,1.3-0.01,1.99,0.1
							c-0.28,0.25-0.52,0.5-0.8,0.72c-0.7,0.57-1.5,1.01-2.49,1.21C375.3,283.55,374.61,283.53,373.9,283.35z"/>
						<path class="st0" d="M371.49,283.52c0-0.5,0.16-0.95,0.48-1.37c0.52-0.69,1.31-1.1,2.25-1.35c0.38-0.1,0.78-0.16,1.18-0.23
							c0.05-0.01,0.1,0,0.18,0c-0.03,0.07-0.05,0.14-0.08,0.2c-0.38,0.84-0.93,1.6-1.83,2.16
							C373.04,283.31,372.32,283.51,371.49,283.52z"/>
						<path class="st0" d="M372.28,280.45c-0.03,0.47-0.14,0.91-0.32,1.33c-0.28,0.66-0.7,1.24-1.43,1.67
							c-0.36,0.21-0.77,0.36-1.22,0.45c-0.1-0.29-0.11-0.58-0.07-0.88c0.12-0.81,0.66-1.42,1.47-1.91
							C371.19,280.83,371.71,280.62,372.28,280.45z"/>
						<path class="st0" d="M372.24,280.23c-0.33,0.05-0.66,0.11-1,0.14c-0.84,0.08-1.68,0.05-2.48-0.2
							c-0.68-0.21-1.21-0.55-1.62-1.04c0.45-0.23,0.95-0.35,1.48-0.39c1.11-0.06,2.03,0.28,2.85,0.83c0.28,0.19,0.54,0.38,0.81,0.57
							C372.27,280.18,372.26,280.21,372.24,280.23z"/>
						<path class="st0" d="M363.97,280.44c0.51-0.37,1.09-0.57,1.76-0.63c1.08-0.09,2.01,0.23,2.87,0.7
							c0.13,0.07,0.25,0.15,0.42,0.25c-0.39,0.11-0.73,0.22-1.08,0.31c-0.88,0.21-1.77,0.27-2.66,0.04
							C364.78,280.98,364.35,280.76,363.97,280.44z"/>
						<path class="st0" d="M367.25,284.62c-0.34-0.68-0.34-1.33,0.03-1.98c0.41-0.72,1.13-1.21,1.96-1.61c0.01,0,0.02,0,0.05,0
							c0.01,0.1,0.02,0.19,0.03,0.29c0.05,0.82-0.08,1.6-0.63,2.32C368.36,284.08,367.88,284.4,367.25,284.62z"/>
						<path class="st0" d="M366.29,282c0.24,0.41,0.38,0.81,0.45,1.22c0.11,0.59,0.07,1.16-0.25,1.71
							c-0.18,0.31-0.43,0.58-0.78,0.81c-0.36-0.33-0.57-0.7-0.65-1.12c-0.16-0.8,0.19-1.5,0.75-2.14
							C365.96,282.32,366.12,282.17,366.29,282z"/>
						<path class="st0" d="M366.21,281.74c-0.97,0.57-1.98,0.98-3.21,0.94c-0.54-0.02-1.04-0.16-1.49-0.39
							C362.38,281.19,364.32,280.93,366.21,281.74z"/>
						<path class="st0" d="M364.05,283.08c-0.93,0.76-1.9,1.33-3.26,1.33c-0.37,0-0.73-0.07-1.08-0.2c0.25-0.42,0.62-0.74,1.11-0.97
							c0.62-0.29,1.29-0.37,2-0.32C363.21,282.95,363.6,283.02,364.05,283.08z"/>
						<path class="st0" d="M364.24,283.36c0.56,0.86,0.9,1.73,0.54,2.69c-0.12,0.33-0.35,0.61-0.65,0.86
							C363.02,286.11,362.95,284.68,364.24,283.36z"/>
						<path class="st0" d="M362.25,284.78c-0.88,1.13-2.39,1.87-3.8,1.53C358.81,285.18,360.31,284.54,362.25,284.78z"/>
						<path class="st0" d="M362.64,284.92c0.88,1.11,1.07,2.52,0.05,3.36C361.63,287.59,361.44,286.23,362.64,284.92z"/>
						<path class="st0" d="M358.21,290.9c-0.36-0.99,0.28-2.13,2.13-2.72c-0.02,0.66-0.19,1.28-0.63,1.83
							C359.35,290.47,358.77,290.81,358.21,290.9z"/>
						<path class="st0" d="M361.26,286.87c0.99,0.98,1.32,2.31,0.47,3.16C360.63,289.47,360.31,288.19,361.26,286.87z"/>
					</g>
					<path class="st0" d="M394.99,278.01c-0.22,0.03-0.45,0.06-0.66,0.1c-0.99,0.2-1.72,0.68-2.32,1.31
						c-0.22,0.23-0.41,0.49-0.64,0.76c1.05,0.05,2.02-0.04,2.95-0.35c0.73-0.24,1.34-0.61,1.75-1.16c0.11-0.15,0.2-0.3,0.32-0.49
						c-0.35-0.06-0.66-0.11-0.97-0.17C395.27,278.01,395.13,278.01,394.99,278.01z"/>
					<path class="st0" d="M387.91,278.5c-0.62,0.07-1.16,0.26-1.66,0.55c-0.89,0.52-1.37,1.24-1.61,2.08
						c-0.13,0.46-0.18,0.93-0.16,1.46c0.46-0.23,0.9-0.43,1.3-0.66c0.82-0.47,1.49-1.05,1.88-1.8
						C387.94,279.61,388.02,279.07,387.91,278.5z"/>
					<path class="st0" d="M384.77,282.88c1.2,0.8,2.5,1.4,4.14,1.39c0.68,0,1.31-0.16,1.91-0.44c-0.31-0.4-0.7-0.72-1.19-0.97
						c-0.98-0.49-2.05-0.59-3.16-0.42c-0.58,0.09-1.13,0.24-1.7,0.36C384.77,282.83,384.77,282.86,384.77,282.88z"/>
					<path class="st0" d="M392.27,278.08c-1.01-0.09-1.9,0.11-2.69,0.58c-0.81,0.49-1.29,1.17-1.63,1.91
						c-0.07,0.15-0.12,0.29-0.19,0.46c0.1-0.01,0.19-0.02,0.27-0.03c1.13-0.18,2.18-0.51,3.05-1.13c0.62-0.45,1.02-1,1.17-1.65
						C392.26,278.18,392.26,278.14,392.27,278.08z"/>
					<path class="st0" d="M393.23,283.23c-0.3-0.67-0.82-1.17-1.56-1.52c-0.57-0.27-1.19-0.41-1.84-0.45
						c-0.65-0.05-1.3-0.01-1.99,0.1c0.28,0.25,0.52,0.5,0.8,0.72c0.7,0.57,1.5,1.01,2.49,1.21
						C391.83,283.43,392.52,283.41,393.23,283.23z"/>
					<path class="st0" d="M395.64,283.4c0-0.5-0.16-0.95-0.48-1.37c-0.52-0.69-1.31-1.1-2.25-1.35c-0.38-0.1-0.78-0.16-1.18-0.23
						c-0.05-0.01-0.1,0-0.18,0c0.03,0.07,0.05,0.14,0.08,0.2c0.38,0.84,0.93,1.6,1.83,2.16C394.1,283.19,394.81,283.39,395.64,283.4
						z"/>
					<path class="st0" d="M394.85,280.33c0.03,0.47,0.14,0.91,0.32,1.33c0.28,0.66,0.7,1.24,1.43,1.67
						c0.36,0.21,0.77,0.36,1.22,0.45c0.1-0.29,0.11-0.58,0.07-0.88c-0.12-0.81-0.66-1.42-1.47-1.91
						C395.95,280.71,395.43,280.5,394.85,280.33z"/>
					<path class="st0" d="M394.89,280.11c0.33,0.05,0.66,0.11,1,0.14c0.84,0.08,1.68,0.05,2.48-0.2c0.68-0.21,1.21-0.55,1.62-1.04
						c-0.45-0.23-0.95-0.35-1.48-0.39c-1.11-0.06-2.03,0.28-2.85,0.83c-0.28,0.19-0.54,0.38-0.81,0.57
						C394.86,280.06,394.88,280.08,394.89,280.11z"/>
					<path class="st0" d="M403.16,280.32c-0.51-0.37-1.09-0.57-1.76-0.63c-1.08-0.09-2.01,0.23-2.87,0.7
						c-0.13,0.07-0.25,0.15-0.42,0.25c0.39,0.11,0.73,0.22,1.08,0.31c0.88,0.21,1.77,0.27,2.66,0.04
						C402.35,280.86,402.78,280.63,403.16,280.32z"/>
					<path class="st0" d="M399.88,284.5c0.34-0.68,0.34-1.33-0.03-1.98c-0.41-0.72-1.13-1.21-1.96-1.61c-0.01,0-0.02,0-0.05,0
						c-0.01,0.1-0.02,0.19-0.03,0.29c-0.05,0.82,0.08,1.6,0.63,2.32C398.77,283.96,399.25,284.28,399.88,284.5z"/>
					<path class="st0" d="M400.85,281.88c-0.24,0.41-0.38,0.81-0.45,1.22c-0.11,0.59-0.07,1.16,0.25,1.71
						c0.18,0.31,0.43,0.58,0.78,0.81c0.36-0.33,0.57-0.7,0.65-1.12c0.16-0.8-0.19-1.5-0.75-2.14
						C401.18,282.2,401.02,282.05,400.85,281.88z"/>
					<path class="st0" d="M400.93,281.61c0.97,0.57,1.98,0.98,3.21,0.94c0.54-0.02,1.04-0.16,1.49-0.39
						C404.75,281.06,402.81,280.81,400.93,281.61z"/>
					<path class="st0" d="M403.09,282.96c0.93,0.76,1.9,1.33,3.26,1.33c0.37,0,0.73-0.07,1.08-0.2c-0.25-0.42-0.62-0.74-1.11-0.97
						c-0.62-0.29-1.29-0.37-2-0.32C403.93,282.83,403.53,282.9,403.09,282.96z"/>
					<path class="st0" d="M402.89,283.24c-0.56,0.86-0.9,1.73-0.54,2.69c0.12,0.33,0.35,0.61,0.65,0.86
						C404.11,285.99,404.19,284.56,402.89,283.24z"/>
					<path class="st0" d="M404.89,284.65c0.88,1.13,2.39,1.87,3.8,1.53C408.32,285.05,406.83,284.41,404.89,284.65z"/>
					<path class="st0" d="M404.5,284.8c-0.88,1.11-1.07,2.52-0.05,3.36C405.51,287.47,405.69,286.11,404.5,284.8z"/>
					<g>
						<path class="st0" d="M386.79,286.01c-0.09-0.02-0.17-0.04-0.26-0.06c-0.86-0.16-1.49-0.68-1.96-1.38
							c-0.24-0.35-0.42-0.74-0.61-1.12c1.09,0.08,2.08,0.34,2.75,1.27c0.27,0.38,0.43,0.81,0.44,1.28
							C387.03,286.01,386.91,286.01,386.79,286.01z"/>
						<path class="st0" d="M380.56,286.01c0.09-0.02,0.17-0.04,0.26-0.06c0.86-0.16,1.49-0.68,1.96-1.38
							c0.24-0.35,0.42-0.74,0.61-1.12c-1.09,0.08-2.08,0.34-2.75,1.27c-0.27,0.38-0.43,0.81-0.44,1.28
							C380.32,286.01,380.44,286.01,380.56,286.01z"/>
					</g>
				</g>
			</g>
		</g>
		<g>
			<path class="st0" d="M415.37,267.1c-2.11-7.51-10.21-13.65-18-13.65h-27.61c-7.8,0-15.9,6.14-18,13.65l-9.63,34.33
				c-2.11,7.51,1.05,17.75,7.02,22.77l23.58,19.84c5.96,5.02,15.73,5.02,21.69,0l23.58-19.84c5.96-5.02,9.12-15.27,7.02-22.77
				L415.37,267.1z M352.08,323.44c-5.96-5.02-9.12-15.27-7.02-22.77l8.51-30.33c2.11-7.51,10.21-13.65,18-13.65h23.98
				c7.8,0,15.9,6.14,18,13.65l8.51,30.33c2.11,7.51-1.05,17.75-7.02,22.77l-20.64,17.37c-5.96,5.02-15.73,5.02-21.69,0
				L352.08,323.44z"/>
		</g>
		<g>
			<path class="st0" d="M412.1,272.94c-2.11-7.51-10.21-13.65-18-13.65h-21.05c-7.8,0-15.9,6.14-18,13.65l-7.61,27.12
				c-2.11,7.51,1.05,17.75,7.02,22.77l18.28,15.38c5.96,5.02,15.73,5.02,21.69,0l18.28-15.38c5.96-5.02,9.12-15.27,7.02-22.77
				L412.1,272.94z M356.61,322.26c-5.96-5.02-9.12-15.27-7.02-22.77l6.78-24.17c2.11-7.51,10.21-13.65,18-13.65h18.38
				c7.8,0,15.9,6.14,18,13.65l6.78,24.17c2.11,7.51-1.05,17.75-7.02,22.77l-16.11,13.56c-5.96,5.02-15.73,5.02-21.69,0
				L356.61,322.26z"/>
		</g>
	</g>
	<g>
		<path class="st0" d="M362.43,350.81h5.34v1.32H364v1.53h3.46v1.22H364v1.75h3.85v1.32h-5.42V350.81z"/>
		<path class="st0" d="M369.98,355.58c0,0.24,0.04,0.44,0.13,0.61c0.09,0.17,0.2,0.3,0.34,0.4c0.14,0.1,0.31,0.18,0.5,0.23
			s0.39,0.08,0.6,0.08c0.14,0,0.29-0.01,0.45-0.04s0.31-0.07,0.45-0.13c0.14-0.07,0.26-0.16,0.35-0.28
			c0.09-0.12,0.14-0.26,0.14-0.45c0-0.19-0.06-0.35-0.19-0.47s-0.29-0.22-0.48-0.3c-0.2-0.08-0.43-0.15-0.68-0.21
			s-0.51-0.12-0.77-0.2c-0.27-0.07-0.53-0.15-0.78-0.25s-0.48-0.22-0.68-0.38c-0.2-0.15-0.36-0.34-0.48-0.57
			c-0.12-0.23-0.19-0.51-0.19-0.84c0-0.37,0.08-0.68,0.23-0.96c0.16-0.27,0.36-0.49,0.62-0.67c0.25-0.18,0.54-0.31,0.86-0.4
			c0.32-0.09,0.64-0.13,0.96-0.13c0.37,0,0.73,0.04,1.08,0.12c0.34,0.08,0.65,0.22,0.92,0.4c0.27,0.19,0.48,0.42,0.63,0.71
			s0.23,0.64,0.23,1.06h-1.52c-0.01-0.21-0.06-0.39-0.14-0.53s-0.18-0.25-0.31-0.33c-0.13-0.08-0.27-0.14-0.44-0.17
			s-0.34-0.05-0.53-0.05c-0.13,0-0.25,0.01-0.38,0.04c-0.13,0.03-0.24,0.07-0.35,0.14s-0.19,0.15-0.25,0.25
			c-0.07,0.1-0.1,0.23-0.1,0.38c0,0.14,0.03,0.25,0.08,0.34c0.05,0.09,0.16,0.17,0.31,0.24s0.37,0.14,0.65,0.22
			c0.28,0.08,0.64,0.17,1.08,0.29c0.09,0.02,0.2,0.05,0.34,0.08c0.14,0.04,0.29,0.09,0.44,0.15s0.31,0.14,0.47,0.25
			c0.16,0.1,0.3,0.22,0.43,0.37s0.23,0.32,0.31,0.52c0.08,0.2,0.12,0.44,0.12,0.71c0,0.33-0.06,0.63-0.19,0.91
			c-0.13,0.28-0.31,0.52-0.56,0.72c-0.25,0.2-0.56,0.36-0.93,0.48s-0.8,0.17-1.29,0.17c-0.39,0-0.77-0.05-1.15-0.15
			c-0.37-0.1-0.69-0.25-0.97-0.46c-0.28-0.21-0.51-0.47-0.68-0.79c-0.17-0.32-0.25-0.7-0.24-1.14H369.98z"/>
		<path class="st0" d="M376.78,352.13h-2.14v-1.32h5.85v1.32h-2.14v5.82h-1.57V352.13z"/>
		<path class="st0" d="M383.77,353.64c-0.01-0.4,0.03-0.77,0.14-1.12c0.11-0.34,0.27-0.64,0.48-0.9c0.21-0.26,0.48-0.46,0.8-0.6
			s0.7-0.21,1.12-0.21c0.32,0,0.62,0.05,0.92,0.15c0.29,0.1,0.54,0.24,0.76,0.43c0.22,0.19,0.4,0.42,0.53,0.69
			c0.13,0.27,0.19,0.58,0.19,0.92c0,0.26-0.03,0.5-0.1,0.71c-0.07,0.21-0.16,0.4-0.27,0.57c-0.11,0.17-0.25,0.32-0.4,0.46
			c-0.15,0.14-0.31,0.27-0.48,0.39s-0.35,0.24-0.54,0.36c-0.18,0.12-0.36,0.24-0.54,0.36c-0.18,0.13-0.35,0.26-0.51,0.41
			c-0.16,0.14-0.31,0.3-0.44,0.49h3.31v1.22h-5.14c0-0.41,0.06-0.76,0.17-1.06c0.12-0.3,0.28-0.57,0.48-0.81
			c0.2-0.24,0.44-0.46,0.71-0.65c0.27-0.2,0.56-0.4,0.85-0.61c0.15-0.11,0.32-0.21,0.49-0.33c0.17-0.11,0.33-0.23,0.47-0.37
			c0.14-0.13,0.26-0.28,0.36-0.45c0.1-0.17,0.15-0.36,0.15-0.57c0-0.33-0.1-0.6-0.29-0.79c-0.2-0.19-0.45-0.29-0.76-0.29
			c-0.21,0-0.39,0.05-0.53,0.15c-0.14,0.1-0.25,0.23-0.34,0.38c-0.09,0.15-0.15,0.32-0.19,0.51c-0.04,0.19-0.06,0.38-0.06,0.57
			H383.77z"/>
		<path class="st0" d="M389.38,352.71c0.14-0.46,0.32-0.83,0.56-1.12c0.23-0.28,0.5-0.48,0.81-0.6s0.64-0.18,0.98-0.18
			s0.68,0.06,0.99,0.18c0.31,0.12,0.59,0.32,0.83,0.6c0.24,0.28,0.42,0.65,0.56,1.12c0.14,0.46,0.21,1.04,0.21,1.71
			c0,0.7-0.07,1.28-0.21,1.75c-0.14,0.47-0.32,0.84-0.56,1.13c-0.24,0.29-0.51,0.49-0.83,0.61c-0.31,0.12-0.64,0.18-0.99,0.18
			s-0.67-0.06-0.98-0.18s-0.58-0.32-0.81-0.61c-0.23-0.29-0.42-0.66-0.56-1.13c-0.14-0.47-0.21-1.05-0.21-1.75
			C389.17,353.74,389.24,353.17,389.38,352.71z M390.61,355.15c0.01,0.28,0.06,0.56,0.12,0.82c0.07,0.26,0.18,0.49,0.33,0.68
			s0.37,0.28,0.66,0.28s0.51-0.09,0.67-0.28s0.27-0.41,0.35-0.68c0.07-0.26,0.11-0.54,0.12-0.82c0.01-0.28,0.02-0.53,0.02-0.73
			c0-0.12,0-0.26-0.01-0.43s-0.02-0.34-0.04-0.53c-0.02-0.18-0.06-0.36-0.1-0.54c-0.04-0.18-0.11-0.33-0.2-0.47
			c-0.09-0.14-0.2-0.25-0.33-0.34s-0.3-0.13-0.49-0.13c-0.19,0-0.35,0.04-0.48,0.13s-0.24,0.2-0.33,0.34s-0.15,0.3-0.19,0.47
			c-0.05,0.18-0.08,0.36-0.1,0.54c-0.02,0.18-0.03,0.36-0.04,0.53s0,0.31,0,0.43C390.59,354.62,390.6,354.87,390.61,355.15z"/>
		<path class="st0" d="M398.04,357.95h-1.42v-4.54h-1.76v-1.07c0.25,0.01,0.48-0.01,0.71-0.05c0.23-0.04,0.44-0.12,0.62-0.23
			c0.19-0.11,0.34-0.26,0.46-0.44s0.21-0.4,0.25-0.67h1.13V357.95z"/>
		<path class="st0" d="M404.7,352.17c-0.37,0.32-0.69,0.71-0.98,1.18c-0.28,0.47-0.52,0.96-0.71,1.49c-0.19,0.53-0.34,1.06-0.44,1.6
			s-0.15,1.04-0.16,1.51h-1.52c0.08-1.04,0.33-2.04,0.74-3.01c0.41-0.97,0.95-1.86,1.61-2.67h-3.32v-1.32h4.78V352.17z"/>
	</g>
	<text transform="matrix(1 0 0 1 379.0718 358.1237)" class="st1 st2">.</text>
</g>
</svg>
